<svg width="38" height="38" viewBox="0 0 38 38" fill="none" xmlns="http://www.w3.org/2000/svg">
<g clip-path="url(#clip0_89_284)">
<path d="M6.35357 27.7738V16.9729M12.5255 27.7738V16.9729M18.6975 27.7738V16.9729M24.8694 27.7738V16.9729M31.0413 27.7738V16.9729M1.72461 33.9457H35.6703M19.2684 3.31743L33.1552 8.87218C33.6953 9.0882 34.1273 9.73625 34.1273 10.3072V15.4299C34.1273 16.2785 33.433 16.9729 32.5843 16.9729H4.81058C3.96194 16.9729 3.2676 16.2785 3.2676 15.4299V10.3072C3.2676 9.73625 3.69963 9.0882 4.23968 8.87218L18.1265 3.31743C18.4351 3.19399 18.9598 3.19399 19.2684 3.31743ZM34.1273 33.9457H3.2676V29.3167C3.2676 28.4681 3.96194 27.7738 4.81058 27.7738H32.5843C33.433 27.7738 34.1273 28.4681 34.1273 29.3167V33.9457Z" stroke="black" stroke-width="1.5" stroke-miterlimit="10" stroke-linecap="round" stroke-linejoin="round"/>
<path d="M18.6973 13.1154C19.0012 13.1154 19.3022 13.0555 19.583 12.9392C19.8638 12.8229 20.119 12.6524 20.3339 12.4375C20.5488 12.2226 20.7193 11.9674 20.8356 11.6866C20.9519 11.4058 21.0118 11.1049 21.0118 10.8009C21.0118 10.497 20.9519 10.196 20.8356 9.91522C20.7193 9.63441 20.5488 9.37926 20.3339 9.16435C20.119 8.94943 19.8638 8.77894 19.583 8.66263C19.3022 8.54632 19.0012 8.48645 18.6973 8.48645C18.0835 8.48645 17.4948 8.7303 17.0607 9.16435C16.6267 9.59839 16.3828 10.1871 16.3828 10.8009C16.3828 11.4148 16.6267 12.0035 17.0607 12.4375C17.4948 12.8716 18.0835 13.1154 18.6973 13.1154Z" stroke="black" stroke-width="1.5" stroke-miterlimit="10" stroke-linecap="round" stroke-linejoin="round"/>
</g>
<defs>
<clipPath id="clip0_89_284">
<rect width="37.0317" height="37.0317" fill="white" transform="translate(0.181641)"/>
</clipPath>
</defs>
</svg>
