<svg width="38" height="38" viewBox="0 0 38 38" fill="none" xmlns="http://www.w3.org/2000/svg">
<path d="M18.6506 8.47097V31.6158M34.0804 7.20572V25.8296C34.0804 27.3108 32.8769 28.6995 31.3956 28.8847L30.8864 28.9464C27.5227 29.3939 22.3383 31.1066 19.3758 32.7421C18.9746 32.9736 18.3111 32.9736 17.8945 32.7421L17.8328 32.7113C14.8702 31.0911 9.70124 29.3939 6.35296 28.9464L5.9055 28.8847C4.42423 28.6995 3.2207 27.3108 3.2207 25.8296V7.19029C3.2207 5.35413 4.7174 3.96545 6.55355 4.11975C9.79382 4.38205 14.7005 6.01762 17.447 7.73033L17.8328 7.96178C18.2802 8.23952 19.0209 8.23952 19.4683 7.96178L19.7307 7.79205C20.7027 7.19029 21.9371 6.58852 23.2795 6.04848V12.3439L26.3655 10.2917L29.4515 12.3439V4.28947C29.8681 4.21232 30.2692 4.16603 30.6396 4.13518H30.7321C32.5683 3.98088 34.0804 5.35413 34.0804 7.20572Z" stroke="black" stroke-width="1.5" stroke-linecap="round" stroke-linejoin="round"/>
<path d="M29.4517 4.28949V12.3439L26.3658 10.2917L23.2798 12.3439V6.04849C25.3011 5.24614 27.5539 4.59809 29.4517 4.28949Z" stroke="black" stroke-width="1.5" stroke-linecap="round" stroke-linejoin="round"/>
</svg>
