<svg width="38" height="38" viewBox="0 0 38 38" fill="none" xmlns="http://www.w3.org/2000/svg">
<path d="M33.7871 6.07936C31.4109 12.0044 25.455 20.0588 20.4711 24.0551L17.4314 26.4931C17.0457 26.7708 16.6599 27.0177 16.2279 27.1874C16.2279 26.9097 16.2125 26.6011 16.1662 26.3079C15.9965 25.0118 15.4101 23.8083 14.3763 22.7745C13.3271 21.7252 12.0464 21.108 10.7349 20.9383C10.4263 20.9229 10.1177 20.892 9.80908 20.9229C9.97881 20.4446 10.2411 19.9971 10.5651 19.6268L12.9722 16.5871C16.9531 11.6033 25.0384 5.61647 30.948 3.2557C31.8583 2.91624 32.7378 3.16312 33.2933 3.73402C33.8797 4.30493 34.1574 5.18443 33.7871 6.07936Z" stroke="black" stroke-width="1.5" stroke-linecap="round" stroke-linejoin="round"/>
<path d="M22.1069 22.327C22.1069 18.2998 18.8358 15.0287 14.8086 15.0287M16.2282 27.1874C16.2282 28.8847 15.5801 30.5048 14.3611 31.7392C13.4199 32.6804 12.1392 33.3285 10.6117 33.5291L6.81594 33.9457C4.74833 34.1771 2.9739 32.4181 3.22078 30.3197L3.63738 26.5239C4.0077 23.1448 6.83137 20.9846 9.82476 20.9229C10.1334 20.9075 10.4574 20.9229 10.7506 20.9383C12.0621 21.1081 13.3428 21.7098 14.392 22.7745C15.4258 23.8083 16.0121 25.0118 16.1819 26.3079C16.1973 26.6011 16.2282 26.8943 16.2282 27.1874Z" stroke="black" stroke-width="1.5" stroke-linecap="round" stroke-linejoin="round"/>
</svg>
