<svg width="38" height="38" viewBox="0 0 38 38" fill="none" xmlns="http://www.w3.org/2000/svg">
<path d="M6.30086 12.3439H4.75787M32.5316 12.3439H30.9886M18.6447 4.62895V7.71492M16.3303 7.71492H20.9592M9.38683 23.1448H14.0158M23.2737 23.1448H27.9027M24.0606 4.36664H13.2289C9.38683 4.36664 8.53819 6.27994 8.04443 8.62528L6.30086 16.9728H30.9886L29.2451 8.62528C28.7513 6.27994 27.9027 4.36664 24.0606 4.36664ZM34.0592 30.582C34.2289 32.3873 32.7785 33.9457 30.9269 33.9457H28.0261C26.3597 33.9457 26.1282 33.2359 25.8351 32.3564L25.5265 31.4306C25.0944 30.1654 24.8167 29.3167 22.5948 29.3167H14.6947C12.4728 29.3167 12.1488 30.2734 11.763 31.4306L11.4544 32.3564C11.1613 33.2359 10.9298 33.9457 9.26339 33.9457H6.36258C4.51099 33.9457 3.06058 32.3873 3.23031 30.582L4.09439 21.1852C4.3104 18.8707 4.75787 16.9728 8.80049 16.9728H28.489C32.5316 16.9728 32.9791 18.8707 33.1951 21.1852L34.0592 30.582Z" stroke="black" stroke-width="1.5" stroke-linecap="round" stroke-linejoin="round"/>
</svg>
