<svg width="30" height="33" viewBox="0 0 30 33" fill="none" xmlns="http://www.w3.org/2000/svg">
<path d="M0.769043 31.9457H28.5428M4.78081 10.9302H2.31203C1.46339 10.9302 0.769043 11.6246 0.769043 12.4732V25.7737C0.769043 26.6224 1.46339 27.3167 2.31203 27.3167H4.78081C5.62945 27.3167 6.32379 26.6224 6.32379 25.7737V12.4732C6.32379 11.6246 5.62945 10.9302 4.78081 10.9302ZM15.8903 6.00809H13.4215C12.5729 6.00809 11.8785 6.70244 11.8785 7.55108V25.7737C11.8785 26.6224 12.5729 27.3167 13.4215 27.3167H15.8903C16.7389 27.3167 17.4333 26.6224 17.4333 25.7737V7.55108C17.4333 6.70244 16.7389 6.00809 15.8903 6.00809ZM26.9998 1.08597H24.531C23.6824 1.08597 22.988 1.78031 22.988 2.62895V25.7737C22.988 26.6224 23.6824 27.3167 24.531 27.3167H26.9998C27.8484 27.3167 28.5428 26.6224 28.5428 25.7737V2.62895C28.5428 1.78031 27.8484 1.08597 26.9998 1.08597Z" stroke="black" stroke-width="1.5" stroke-linecap="round" stroke-linejoin="round"/>
</svg>
