<svg width="22" height="22" viewBox="0 0 22 22" fill="none" xmlns="http://www.w3.org/2000/svg">
<path d="M11.53 21.0003H3.11C1.95 21.0003 1 20.0703 1 18.9303V4.09035C1 1.47035 2.95 0.280349 5.34 1.45035L9.78 3.63035C10.74 4.10035 11.53 5.35035 11.53 6.41035V21.0003ZM11.53 21.0003H17.84C20 21.0003 21 20.0003 21 17.8403V14.0603C21 13.9903 21 13.9303 20.99 13.8703C20.93 11.9503 19.85 11.2703 18.53 10.9803L16.5 10.5303L12 9.52035L11.53 9.42035V21.0003ZM4.53 8.00035H8M4.53 12.0003H8" stroke="black" stroke-width="1.5" stroke-linecap="round" stroke-linejoin="round"/>
<path d="M16.5 10.5304V13.7504M16.5 10.5304L12 9.52039V13.7504C12 14.9904 13.01 16.0004 14.25 16.0004C15.49 16.0004 16.5 14.9904 16.5 13.7504M16.5 10.5304L18.53 10.9804C19.85 11.2704 20.93 11.9504 20.99 13.8704C20.9596 14.4444 20.7105 14.9851 20.2939 15.3812C19.8773 15.7773 19.3249 15.9989 18.75 16.0004C17.51 16.0004 16.5 14.9904 16.5 13.7504" stroke="black" stroke-width="1.5" stroke-linecap="round" stroke-linejoin="round"/>
</svg>
