<svg width="20" height="21" viewBox="0 0 20 21" fill="none" xmlns="http://www.w3.org/2000/svg">
<path d="M15.3278 18.0419C15.1522 18.0419 14.9958 17.9554 14.8243 17.8509C14.4481 17.622 14.0718 17.3933 13.6954 17.1649C12.5988 16.4987 11.4648 15.8099 10.3544 15.1249C10.2441 15.0499 10.1146 15.0081 9.98128 15.0044C9.85136 15.0085 9.72492 15.0473 9.61508 15.1168C8.70424 15.6386 7.77491 16.1645 6.87607 16.6732C6.26134 17.021 5.64686 17.3693 5.03261 17.718C4.88881 17.8087 4.72384 17.8603 4.55399 17.8677C4.46935 17.8674 4.38551 17.8513 4.3068 17.8202C3.9612 17.6874 3.81417 17.3554 3.91314 16.9321L4.06081 16.3017C4.41108 14.8058 4.77334 13.259 5.1411 11.7406C5.18018 11.6193 5.18088 11.4889 5.14311 11.3672C5.10535 11.2455 5.03095 11.1384 4.93008 11.0605C4.05293 10.2654 3.16544 9.45193 2.30716 8.66524C1.89213 8.28494 1.4771 7.90479 1.06207 7.5248C0.899481 7.37612 0.76179 7.23715 0.723338 7.04132C0.70078 6.94399 0.699103 6.84298 0.718418 6.74496C0.737733 6.64693 0.777601 6.55411 0.835396 6.47261C0.898257 6.39364 0.977127 6.32888 1.06682 6.28258C1.15651 6.23628 1.25498 6.2095 1.35577 6.204C2.76857 6.07656 4.43653 5.92935 6.09597 5.80768L6.15804 5.80319C7.09973 5.73426 7.16592 5.68683 7.57478 4.78799C7.78071 4.33543 7.98707 3.88308 8.19385 3.43094C8.61956 2.49887 9.05982 1.53484 9.48663 0.583725C9.67257 0.169094 9.87956 0 10.201 0C10.5348 0 10.7518 0.181636 10.9273 0.606613C11.2362 1.35504 11.554 2.11408 11.8611 2.84813C12.2118 3.68563 12.5744 4.55161 12.9254 5.40541C13.0444 5.69489 13.2312 5.83267 13.5506 5.86673C15.0598 6.02731 16.5934 6.20071 18.0766 6.36833L18.6871 6.43727C18.8107 6.44694 18.933 6.4693 19.0521 6.50401C19.1622 6.53712 19.2614 6.59945 19.3389 6.68436C19.4165 6.76928 19.4697 6.87361 19.4927 6.9863C19.5458 7.25756 19.4298 7.54714 19.1825 7.761C17.9795 8.80064 16.581 10.0076 15.2063 11.1725C14.9458 11.3934 14.869 11.6218 14.9415 11.9606C15.2147 13.2375 15.4781 14.5394 15.7327 15.7983C15.8128 16.194 15.893 16.5897 15.9733 16.9853C16.0444 17.3343 15.9971 17.6322 15.8404 17.824C15.7784 17.8964 15.7008 17.9536 15.6133 17.9914C15.5258 18.0291 15.4309 18.0464 15.3357 18.0418L15.3278 18.0419ZM10.0845 2.79439C9.9771 2.88138 9.89778 2.99809 9.8564 3.12992C9.84725 3.15272 9.83882 3.17524 9.82894 3.19694L9.59091 3.71621C9.16474 4.6471 8.72347 5.60975 8.29757 6.56013C8.14963 6.89017 7.93037 7.04938 7.5865 7.07629C6.6649 7.14856 5.74304 7.22198 4.82095 7.29656C4.52753 7.32055 4.23448 7.34811 3.93703 7.37612C3.80053 7.38894 3.29371 7.43563 3.29371 7.43563L3.36777 7.65535C3.41348 7.78405 3.49799 7.8954 3.60965 7.97404C3.6264 7.98749 3.64279 8.00049 3.65808 8.01441L4.18486 8.49963C4.89584 9.15522 5.63135 9.83315 6.3633 10.4906C6.49894 10.5975 6.59825 10.7437 6.64764 10.9092C6.69703 11.0747 6.69409 11.2515 6.63923 11.4152C6.55812 11.7236 6.48543 12.0382 6.41512 12.3425L6.35103 12.6172C6.19182 13.2963 6.03353 13.9756 5.87003 14.6771L5.61002 15.7922L5.97339 15.5864C6.3192 15.3908 6.66142 15.1979 7.00003 15.0078C7.85529 14.5268 8.66323 14.0724 9.47757 13.5954C9.63468 13.4946 9.81604 13.4379 10.0026 13.4313C10.1922 13.4377 10.3761 13.4984 10.5322 13.6061C11.3552 14.1244 12.2018 14.6337 13.0206 15.1259L13.2525 15.2654C13.3066 15.298 13.3597 15.3327 13.4132 15.3676C13.5894 15.4932 13.7825 15.5934 13.9867 15.6652L14.2451 15.7468L14.2245 15.4765C14.2223 15.4503 14.2212 15.4269 14.2202 15.4053C14.2192 15.3571 14.2143 15.3092 14.2058 15.2618C14.139 14.9336 14.0728 14.6053 14.0073 14.2769C13.8271 13.3788 13.6411 12.45 13.4408 11.5396C13.3506 11.1282 13.4478 10.8479 13.7767 10.5721C14.5483 9.92461 15.3218 9.25473 16.0698 8.60692L16.4818 8.24988C16.5014 8.23294 16.5226 8.21729 16.5441 8.20127C16.6715 8.12174 16.7665 7.9995 16.812 7.85639L16.8634 7.67046L16.6752 7.6288C16.6494 7.62322 16.6245 7.6169 16.6003 7.61049C16.5407 7.59427 16.4801 7.58204 16.4189 7.57387L15.6005 7.48021C14.6421 7.37035 13.6511 7.25665 12.6749 7.15439C12.2897 7.11401 12.0637 6.95298 11.9419 6.632C11.8996 6.52095 11.8525 6.41228 11.8069 6.30626C11.7848 6.25527 11.7628 6.20437 11.7414 6.1531L10.2722 2.64947L10.0845 2.79439Z" fill="black"/>
<path d="M0.681516 14.2607C0.554213 14.2593 0.42989 14.222 0.32284 14.1531C0.21579 14.0842 0.130359 13.9865 0.0763686 13.8712C0.0345016 13.793 0.00878928 13.7072 0.000761529 13.6188C-0.00726622 13.5305 0.00255467 13.4415 0.0296398 13.357C0.056725 13.2726 0.100521 13.1945 0.158422 13.1273C0.216322 13.0601 0.287145 13.0052 0.366675 12.966C0.994253 12.6252 1.82297 12.1818 2.66679 11.7739C2.76199 11.7266 2.86671 11.7016 2.97302 11.7007C3.05754 11.7009 3.14116 11.718 3.21895 11.751C3.29675 11.784 3.36715 11.8323 3.42601 11.8929C3.5029 11.9761 3.56246 12.0738 3.60123 12.1802C3.63999 12.2867 3.65717 12.3998 3.65178 12.5129C3.63838 12.6167 3.59877 12.7154 3.53667 12.7997C3.47457 12.884 3.39203 12.951 3.29684 12.9946C2.44807 13.4447 1.73938 13.8185 0.992605 14.186C0.895999 14.2346 0.789459 14.2601 0.681333 14.2606" fill="black"/>
<path d="M19.3207 14.2651C19.2276 14.2648 19.1357 14.2437 19.0517 14.2033C18.3619 13.877 17.6359 13.5003 16.6978 12.9822C16.6225 12.941 16.5562 12.8853 16.5025 12.8184C16.4489 12.7515 16.409 12.6746 16.3851 12.5922C16.3612 12.5098 16.3539 12.4235 16.3634 12.3382C16.373 12.253 16.3993 12.1704 16.4409 12.0954C16.496 11.9808 16.5817 11.8838 16.6886 11.815C16.7955 11.7461 16.9193 11.7083 17.0464 11.7056C17.1442 11.7058 17.2407 11.7284 17.3284 11.7718C18.1732 12.1832 18.9941 12.6211 19.6857 12.9951C19.7869 13.0536 19.8698 13.1391 19.9251 13.242C19.9805 13.3449 20.0062 13.4611 19.9993 13.5778C19.9941 13.7569 19.9213 13.9275 19.7953 14.0551C19.6694 14.1826 19.4998 14.2577 19.3207 14.2651Z" fill="black"/>
<path d="M5.70856 4.47752C5.6086 4.47996 5.5092 4.46198 5.41643 4.42467C5.32366 4.38736 5.23949 4.33151 5.16905 4.26054L4.78161 3.87557C4.32743 3.42469 3.85778 2.95851 3.40515 2.49225C3.11293 2.19141 3.10514 1.77101 3.38684 1.49261C3.44786 1.42866 3.521 1.37751 3.602 1.34215C3.683 1.30678 3.77023 1.2879 3.8586 1.28662C4.05831 1.29302 4.24741 1.37805 4.38474 1.52319C4.993 2.11469 5.59321 2.72122 6.15121 3.28837C6.25684 3.38416 6.32834 3.51179 6.35486 3.6519C6.38138 3.79201 6.36147 3.93695 6.29815 4.06472C6.25033 4.18319 6.16915 4.28522 6.06445 4.35844C5.95976 4.43165 5.83606 4.47289 5.70838 4.47715" fill="black"/>
<path d="M14.594 4.47886C14.466 4.47744 14.3411 4.439 14.2344 4.36817C14.1278 4.29734 14.0439 4.19715 13.9929 4.0797C13.9021 3.88424 13.8432 3.60007 14.0774 3.35563C14.7672 2.63632 15.3916 2.01341 15.9863 1.45138C16.0986 1.34303 16.2487 1.2827 16.4047 1.28321C16.4983 1.28481 16.5907 1.3049 16.6765 1.34233C16.7623 1.37975 16.8399 1.43377 16.9047 1.50128C17.0293 1.62104 17.1022 1.7847 17.1079 1.95741C17.1136 2.13012 17.0516 2.29824 16.9352 2.42594C16.4026 2.98513 15.8413 3.53718 15.2986 4.07101L15.0527 4.31297C14.927 4.42542 14.7626 4.48493 14.594 4.47886Z" fill="black"/>
<path d="M9.89367 20.5662C9.51255 20.5609 9.23341 20.2682 9.2151 19.8545C9.21418 19.8345 9.21373 19.8143 9.21373 19.7941V18.7769L9.21519 18.5956C9.21519 18.4656 9.21437 18.3355 9.21354 18.2054C9.21171 17.919 9.20988 17.6228 9.2173 17.3333C9.22783 16.9305 9.51319 16.6356 9.89587 16.6325C9.98654 16.6302 10.0767 16.6463 10.161 16.6799C10.2452 16.7135 10.3218 16.7638 10.386 16.8278C10.4502 16.8919 10.5008 16.9683 10.5345 17.0525C10.5683 17.1367 10.5846 17.2269 10.5825 17.3175C10.5969 18.1754 10.5968 19.0375 10.5825 19.8797C10.5839 19.9696 10.5674 20.0588 10.5339 20.1423C10.5004 20.2257 10.4506 20.3016 10.3874 20.3656C10.3241 20.4295 10.2488 20.4802 10.1658 20.5147C10.0827 20.5491 9.99365 20.5667 9.90374 20.5663L9.89367 20.5662Z" fill="black"/>
</svg>
