<svg width="18" height="18" viewBox="0 0 18 18" fill="none" xmlns="http://www.w3.org/2000/svg">
<path d="M16.86 7.03999C16.52 7.03999 16.18 7.03999 15.84 7.03999C15.73 7.03999 15.69 7.00999 15.66 6.90999C15.54 6.51999 15.39 6.14999 15.2 5.78999C15.14 5.68999 15.17 5.62999 15.24 5.54999C15.52 5.27999 15.8 4.99999 16.07 4.71999C16.49 4.29999 16.49 3.74999 16.07 3.32999C15.61 2.85999 15.15 2.39999 14.68 1.93999C14.27 1.52999 13.71 1.53999 13.3 1.93999C13.01 2.21999 12.73 2.50999 12.44 2.79999C12.37 2.86999 12.32 2.87999 12.23 2.82999C11.87 2.63999 11.5 2.47999 11.11 2.35999C10.99 2.31999 10.96 2.26999 10.96 2.14999C10.96 1.75999 10.96 1.35999 10.96 0.96999C10.96 0.38999 10.55 -0.0100098 9.97 -0.0100098C9.33 -0.0100098 8.68 -0.0100098 8.04 -0.0100098C7.44 -0.0100098 7.04 0.38999 7.04 0.98999C7.04 1.37999 7.04 1.77999 7.04 2.16999C7.04 2.27999 7.01 2.31999 6.91 2.34999C6.52 2.46999 6.15 2.61999 5.79 2.80999C5.7 2.85999 5.64 2.85999 5.57 2.77999C5.29 2.48999 5 2.19999 4.71 1.91999C4.3 1.51999 3.75 1.51999 3.35 1.91999C2.88 2.37999 2.41 2.84999 1.95 3.31999C1.54 3.72999 1.55 4.27999 1.95 4.69999C2.23 4.98999 2.52 5.27999 2.81 5.55999C2.88 5.62999 2.89 5.67999 2.84 5.76999C2.64 6.11999 2.49 6.49999 2.37 6.88999C2.33 7.00999 2.27 7.03999 2.16 7.03999C1.77 7.03999 1.37 7.03999 0.98 7.03999C0.4 7.03999 0 7.43999 0 8.02999C0 8.66999 0 9.31999 0 9.95999C0 10.56 0.4 10.96 1 10.96C1.39 10.96 1.79 10.96 2.18 10.96C2.29 10.96 2.33 10.99 2.36 11.1C2.48 11.49 2.63 11.86 2.82 12.22C2.88 12.33 2.85 12.38 2.78 12.46C2.49 12.74 2.21 13.02 1.93 13.3C1.53 13.71 1.52 14.26 1.93 14.66C2.39 15.13 2.86 15.6 3.33 16.07C3.38 16.12 3.43 16.17 3.5 16.18C3.63 16.2 3.74 16.18 3.8 16.06C3.88 15.92 3.85 15.8 3.74 15.69C3.28 15.23 2.82 14.77 2.36 14.31C2.13 14.08 2.13 13.89 2.36 13.66C2.7 13.32 3.04 12.98 3.38 12.64C3.54 12.48 3.55 12.39 3.44 12.19C3.17 11.71 2.96 11.21 2.82 10.69C2.76 10.46 2.69 10.41 2.46 10.41C1.98 10.41 1.5 10.41 1.02 10.41C0.7 10.41 0.56 10.27 0.56 9.94999C0.56 9.32999 0.56 8.70999 0.56 8.08999C0.56 7.74999 0.7 7.61999 1.04 7.61999C1.51 7.61999 1.98 7.61999 2.45 7.61999C2.69 7.61999 2.76 7.56999 2.82 7.33999C2.97 6.81999 3.17 6.31999 3.44 5.84999C3.56 5.62999 3.55 5.54999 3.37 5.36999C3.04 5.03999 2.71 4.70999 2.38 4.37999C2.14 4.13999 2.14 3.94999 2.38 3.71999C2.81 3.27999 3.25 2.84999 3.69 2.40999C3.94 2.15999 4.12 2.15999 4.38 2.40999C4.71 2.73999 5.04 3.06999 5.37 3.39999C5.53 3.55999 5.62 3.57999 5.82 3.45999C6.3 3.18999 6.8 2.97999 7.32 2.83999C7.55 2.77999 7.6 2.70999 7.6 2.45999C7.6 1.98999 7.6 1.50999 7.6 1.03999C7.6 0.71999 7.74 0.57999 8.06 0.57999C8.69 0.57999 9.31 0.57999 9.94 0.57999C10.26 0.57999 10.4 0.71999 10.4 1.03999C10.4 1.51999 10.4 1.99999 10.4 2.47999C10.4 2.69999 10.45 2.76999 10.66 2.82999C11.19 2.97999 11.7 3.18999 12.18 3.45999C12.38 3.56999 12.47 3.55999 12.63 3.39999C12.97 3.05999 13.31 2.71999 13.65 2.37999C13.87 2.15999 14.07 2.15999 14.29 2.37999C14.74 2.82999 15.19 3.26999 15.63 3.71999C15.85 3.93999 15.85 4.13999 15.63 4.35999C15.29 4.69999 14.95 5.03999 14.61 5.37999C14.45 5.53999 14.43 5.62999 14.54 5.82999C14.81 6.30999 15.02 6.80999 15.17 7.32999C15.24 7.55999 15.3 7.60999 15.54 7.60999C16.01 7.60999 16.49 7.60999 16.96 7.60999C17.28 7.60999 17.42 7.74999 17.42 8.06999C17.42 8.69999 17.42 9.31999 17.42 9.94999C17.42 10.27 17.28 10.41 16.96 10.41C16.49 10.41 16.01 10.41 15.54 10.41C15.29 10.41 15.23 10.46 15.16 10.69C15.01 11.22 14.81 11.72 14.54 12.19C14.43 12.39 14.44 12.48 14.6 12.64C14.93 12.98 15.27 13.31 15.61 13.65C15.85 13.89 15.85 14.08 15.61 14.33C15.17 14.77 14.72 15.22 14.28 15.66C14.11 15.83 14.09 15.99 14.22 16.12C14.34 16.24 14.51 16.22 14.67 16.06C15.13 15.6 15.59 15.14 16.05 14.68C16.46 14.26 16.46 13.71 16.05 13.29C15.77 13.01 15.5 12.73 15.22 12.46C15.14 12.38 15.12 12.33 15.18 12.22C15.38 11.87 15.53 11.49 15.64 11.1C15.67 11 15.72 10.96 15.82 10.97C16.22 10.97 16.63 10.97 17.03 10.97C17.34 10.97 17.6 10.85 17.8 10.61C17.9 10.49 17.94 10.34 18 10.21V7.81999C17.74 7.19999 17.52 7.04999 16.84 7.04999L16.86 7.03999Z" fill="#3E54AC"/>
<path d="M13.8 14.71C13.77 13.3 12.58 12.04 11.19 11.88C10.92 11.85 10.85 11.9 10.75 12.15C10.49 12.83 10.23 13.52 9.98 14.2C9.96 14.25 9.96 14.31 9.89 14.35C9.83 14.05 9.79 13.77 9.73 13.48C9.71 13.39 9.73 13.32 9.77 13.25C9.94 12.95 10.1 12.64 10.26 12.34C10.41 12.06 10.3 11.86 9.98 11.85C9.35 11.85 8.71 11.85 8.08 11.85C7.77 11.85 7.66 12.06 7.81 12.34C7.97 12.64 8.14 12.95 8.3 13.25C8.32 13.29 8.36 13.34 8.35 13.38C8.29 13.7 8.23 14.02 8.17 14.35C8.12 14.3 8.1 14.25 8.08 14.21C7.83 13.54 7.57 12.86 7.32 12.19C7.21 11.89 7.13 11.85 6.82 11.89C5.32 12.13 4.26 13.37 4.25 14.89C4.25 15.8 4.25 16.71 4.25 17.61C4.25 17.78 4.29 17.91 4.43 18H13.64C13.74 17.92 13.82 17.83 13.82 17.68C13.82 16.69 13.83 15.7 13.82 14.71H13.8ZM7.72 17.44C6.8 17.44 5.88 17.44 4.96 17.44C4.83 17.44 4.79 17.41 4.8 17.28C4.8 16.47 4.8 15.65 4.8 14.84C4.81 13.74 5.58 12.78 6.64 12.51C6.74 12.49 6.81 12.46 6.86 12.6C7.46 14.19 8.06 15.77 8.66 17.35C8.66 17.37 8.67 17.39 8.68 17.44H7.72ZM9 16.65C8.85 16.26 8.7 15.87 8.55 15.47C8.53 15.42 8.55 15.37 8.55 15.32C8.67 14.71 8.78 14.1 8.9 13.49C8.93 13.34 8.92 13.2 8.84 13.07C8.73 12.89 8.64 12.7 8.54 12.52C8.5 12.45 8.51 12.42 8.6 12.42C8.89 12.42 9.17 12.42 9.46 12.42C9.55 12.42 9.56 12.45 9.52 12.52C9.42 12.71 9.32 12.9 9.21 13.09C9.14 13.21 9.12 13.34 9.15 13.48C9.27 14.09 9.38 14.71 9.5 15.32C9.5 15.37 9.52 15.42 9.5 15.47C9.35 15.86 9.2 16.25 9.05 16.64C9.04 16.64 9.02 16.64 9.01 16.64L9 16.65ZM13.24 17.29C13.24 17.38 13.24 17.44 13.11 17.44C11.88 17.44 10.65 17.44 9.42 17.44C9.4 17.44 9.39 17.44 9.34 17.43C9.56 16.85 9.78 16.29 9.99 15.73C10.38 14.7 10.77 13.66 11.16 12.63C11.21 12.51 11.26 12.47 11.39 12.51C12.44 12.78 13.22 13.74 13.23 14.83C13.24 15.66 13.23 16.48 13.23 17.31L13.24 17.29Z" fill="#3E54AC"/>
<path d="M12.43 11.49C12.29 11.69 12.33 11.9 12.52 11.97C12.69 12.03 12.8 11.95 12.89 11.81C13.6 10.82 13.9 9.72002 13.78 8.51002C13.55 6.17002 11.61 4.33002 9.26999 4.22002C6.52999 4.09002 4.24999 6.26002 4.23999 9.18002C4.24999 10.03 4.53999 10.96 5.14999 11.8C5.16999 11.83 5.19999 11.87 5.22999 11.9C5.33999 12.01 5.46999 12.03 5.59999 11.94C5.72999 11.85 5.74999 11.72 5.67999 11.58C5.64999 11.53 5.61999 11.48 5.57999 11.43C4.93999 10.51 4.68999 9.49002 4.85999 8.38002C5.19999 6.12002 7.22999 4.57002 9.50999 4.81002C12.02 5.08002 13.75 7.57002 13.13 10.02C12.99 10.55 12.76 11.04 12.44 11.49H12.43Z" fill="#3E54AC"/>
<path d="M6.42993 9.03C6.42993 10.45 7.58993 11.63 9.01993 11.63C10.4399 11.63 11.6199 10.47 11.6199 9.04C11.6199 7.62 10.4599 6.44 9.02993 6.44C7.60993 6.44 6.42993 7.6 6.42993 9.03ZM11.0599 9.03C11.0599 10.14 10.1299 11.07 9.01993 11.06C7.90993 11.06 6.99993 10.14 6.99993 9.03C6.99993 7.91 7.92993 6.99 9.03993 7C10.1499 7 11.0599 7.92 11.0599 9.03Z" fill="#3E54AC"/>
</svg>
