<svg width="38" height="38" viewBox="0 0 38 38" fill="none" xmlns="http://www.w3.org/2000/svg">
<path d="M26.3863 19.7478C26.8242 19.7478 27.2442 19.5738 27.5538 19.2642C27.8634 18.9546 28.0373 18.5347 28.0373 18.0968C28.0373 17.6589 27.8634 17.239 27.5538 16.9294C27.2442 16.6197 26.8242 16.4458 26.3863 16.4458C25.9485 16.4458 25.5285 16.6197 25.2189 16.9294C24.9093 17.239 24.7354 17.6589 24.7354 18.0968C24.7354 18.5347 24.9093 18.9546 25.2189 19.2642C25.5285 19.5738 25.9485 19.7478 26.3863 19.7478Z" stroke="black" stroke-width="1.5" stroke-linecap="round" stroke-linejoin="round"/>
<path d="M14.027 24.3305V30.9653M3.22607 18.4671H18.6559M9.32087 30.9653H18.6559M30.9998 9.36353V12.1255C30.6141 12.0792 30.1666 12.0483 29.6883 12.0483H23.0843C19.7823 12.0483 18.6868 13.1438 18.6868 16.4458V24.3305H9.39802C4.46046 24.3305 3.22607 23.0961 3.22607 18.1586V9.36353C3.22607 4.42598 4.46046 3.19159 9.39802 3.19159H24.8279C29.7654 3.19159 30.9998 4.42598 30.9998 9.36353Z" stroke="black" stroke-width="1.5" stroke-linecap="round" stroke-linejoin="round"/>
<path d="M26.3863 19.7478C26.8242 19.7478 27.2442 19.5738 27.5538 19.2642C27.8634 18.9546 28.0373 18.5347 28.0373 18.0968C28.0373 17.6589 27.8634 17.239 27.5538 16.9294C27.2442 16.6197 26.8242 16.4458 26.3863 16.4458C25.9485 16.4458 25.5285 16.6197 25.2189 16.9294C24.9093 17.239 24.7354 17.6589 24.7354 18.0968C24.7354 18.5347 24.9093 18.9546 25.2189 19.2642C25.5285 19.5738 25.9485 19.7478 26.3863 19.7478Z" stroke="black" stroke-width="1.5" stroke-miterlimit="10" stroke-linecap="round" stroke-linejoin="round"/>
<path d="M31 12.1254C30.6143 12.0791 30.1668 12.0483 29.6885 12.0483H23.0845C19.7825 12.0483 18.687 13.1438 18.687 16.4458V29.6537C18.687 32.9557 19.7825 34.0513 23.0845 34.0513H29.6885C32.9905 34.0513 34.086 32.9557 34.086 29.6537V16.4458C34.086 13.6221 33.2837 12.4186 31 12.1254ZM26.3865 16.4458C26.812 16.4642 27.214 16.6462 27.5086 16.9538C27.8032 17.2614 27.9677 17.6709 27.9677 18.0968C27.9677 18.5227 27.8032 18.9322 27.5086 19.2398C27.214 19.5474 26.812 19.7294 26.3865 19.7478C25.961 19.7294 25.559 19.5474 25.2644 19.2398C24.9698 18.9322 24.8054 18.5227 24.8054 18.0968C24.8054 17.6709 24.9698 17.2614 25.2644 16.9538C25.559 16.6462 25.961 16.4642 26.3865 16.4458ZM26.3865 29.6537C24.5658 29.6537 23.0845 28.1725 23.0845 26.3518C23.0854 25.7194 23.2676 25.1005 23.6097 24.5686C23.9517 24.0366 24.4392 23.614 25.0143 23.3509C25.5893 23.0877 26.2278 22.9951 26.8539 23.0839C27.4801 23.1728 28.0676 23.4394 28.5467 23.8521C29.241 24.4693 29.6885 25.3642 29.6885 26.3518C29.6885 28.1725 28.2072 29.6537 26.3865 29.6537Z" stroke="black" stroke-width="1.5" stroke-miterlimit="10" stroke-linecap="round" stroke-linejoin="round"/>
<path d="M29.6885 26.3518C29.6885 28.1725 28.2072 29.6538 26.3865 29.6538C24.5657 29.6538 23.0845 28.1725 23.0845 26.3518C23.0853 25.7194 23.2676 25.1005 23.6096 24.5686C23.9517 24.0367 24.4392 23.614 25.0142 23.3509C25.5893 23.0877 26.2277 22.9951 26.8539 23.0839C27.48 23.1728 28.0675 23.4394 28.5466 23.8521C29.241 24.4693 29.6885 25.3643 29.6885 26.3518ZM26.3865 19.7478C26.8243 19.7478 27.2443 19.5738 27.5539 19.2642C27.8635 18.9546 28.0375 18.5347 28.0375 18.0968C28.0375 17.6589 27.8635 17.239 27.5539 16.9294C27.2443 16.6197 26.8243 16.4458 26.3865 16.4458C25.9486 16.4458 25.5287 16.6197 25.219 16.9294C24.9094 17.239 24.7355 17.6589 24.7355 18.0968C24.7355 18.5347 24.9094 18.9546 25.219 19.2642C25.5287 19.5738 25.9486 19.7478 26.3865 19.7478Z" stroke="black" stroke-width="1.5" stroke-miterlimit="10" stroke-linecap="round" stroke-linejoin="round"/>
</svg>
