<svg width="22" height="22" viewBox="0 0 22 22" fill="none" xmlns="http://www.w3.org/2000/svg">
<path d="M1 21H21M2.11 21V12C2.11 10.34 3.6 9 5.44 9H16.55C18.39 9 19.88 10.34 19.88 12V21M4.56 9V6.17C4.56 4.97 5.64 4 6.98 4H15.03C16.36 4 17.44 4.97 17.44 6.17V9" stroke="black" stroke-width="1.5" stroke-linecap="round" stroke-linejoin="round"/>
<path d="M2.53027 12.98L2.90027 12.99C3.64027 13 4.23027 13.6 4.23027 14.34V14.67C4.23027 15.028 4.37251 15.3714 4.62568 15.6246C4.87885 15.8778 5.22223 16.02 5.58027 16.02C5.93832 16.02 6.28169 15.8778 6.53487 15.6246C6.78804 15.3714 6.93027 15.028 6.93027 14.67V14.36C6.93027 14.002 7.07251 13.6586 7.32568 13.4054C7.57885 13.1522 7.92223 13.01 8.28027 13.01C8.63832 13.01 8.98169 13.1522 9.23487 13.4054C9.48804 13.6586 9.63027 14.002 9.63027 14.36V14.67C9.63027 15.028 9.77251 15.3714 10.0257 15.6246C10.2789 15.8778 10.6222 16.02 10.9803 16.02C11.3383 16.02 11.6817 15.8778 11.9349 15.6246C12.188 15.3714 12.3303 15.028 12.3303 14.67V14.36C12.3303 14.002 12.4725 13.6586 12.7257 13.4054C12.9789 13.1522 13.3222 13.01 13.6803 13.01C14.0383 13.01 14.3817 13.1522 14.6349 13.4054C14.888 13.6586 15.0303 14.002 15.0303 14.36V14.67C15.0303 15.028 15.1725 15.3714 15.4257 15.6246C15.6789 15.8778 16.0222 16.02 16.3803 16.02C16.7383 16.02 17.0817 15.8778 17.3349 15.6246C17.588 15.3714 17.7303 15.028 17.7303 14.67V14.36C17.7303 13.62 18.3303 13.01 19.0803 13.01H19.5303M7.00027 4V2M15.0003 4V2M11.0003 4V1" stroke="black" stroke-width="1.5" stroke-linecap="round" stroke-linejoin="round"/>
</svg>
