<svg width="18" height="18" viewBox="0 0 18 18" fill="none" xmlns="http://www.w3.org/2000/svg">
<path d="M1.6 17.79C0.82 17.79 0.23 17.35 0.05 16.64C0.01 16.48 0 16.31 0 16.15V3.23C0 2.48 0.4 1.91 1.08 1.7C1.22 1.66 1.37 1.64 1.54 1.64H3.02C3.09 1.64 3.18 1.64 3.23 1.57C3.29 1.51 3.29 1.43 3.28 1.37C3.28 1.28 3.28 1.2 3.28 1.11C3.29 0.39 3.68 0 4.3 0H10.18C10.87 0 11.25 0.38 11.25 1.08C11.25 1.6 11.29 1.64 11.81 1.64H12.61C12.81 1.64 13 1.64 13.2 1.66C13.97 1.74 14.51 2.36 14.51 3.18C14.51 4.2 14.51 9.14 14.51 9.64C14.51 9.81 14.58 9.9 14.74 9.94C16.44 10.42 17.45 11.53 17.74 13.25C17.91 14.22 17.65 15.27 17.04 16.12C16.42 16.99 15.49 17.58 14.5 17.74C14.25 17.78 14 17.8 13.75 17.8H7.67H1.59L1.6 17.79ZM1.59 2.25C0.99 2.25 0.64 2.6 0.64 3.21V16.18C0.64 16.38 0.64 16.58 0.77 16.77C0.95 17.05 1.22 17.17 1.61 17.17C1.61 17.17 11.17 17.17 11.18 17.17C11.26 17.17 11.31 17.17 11.37 17.12L11.47 17.05L11.24 16.84C10.08 15.79 9.63 14.5 9.92 13C10.26 11.21 11.8 9.9 13.65 9.82C13.85 9.82 13.92 9.73 13.92 9.54C13.92 8.05 13.92 3.18 13.92 3.18C13.92 2.64 13.56 2.27 13.03 2.26H11.48C11.34 2.26 11.26 2.31 11.21 2.45C11.05 2.87 10.75 3.08 10.31 3.08C9.3 3.08 8.3 3.08 7.29 3.08H4.27C3.83 3.08 3.52 2.86 3.36 2.45C3.31 2.31 3.22 2.26 3.08 2.26H1.94H1.6L1.59 2.25ZM13.84 10.43C11.94 10.43 10.45 11.91 10.45 13.81C10.45 15.66 11.96 17.16 13.82 17.17C15.67 17.17 17.18 15.67 17.18 13.82C17.18 12.91 16.83 12.05 16.19 11.41C15.56 10.78 14.72 10.43 13.84 10.43ZM4.31 0.62C4.02 0.62 3.9 0.74 3.9 1.03V2.05C3.9 2.34 4.02 2.45 4.31 2.45H10.23C10.52 2.45 10.64 2.33 10.64 2.04C10.64 1.77 10.64 1.08 10.64 1.08C10.64 0.73 10.53 0.62 10.19 0.62H6.09H4.31Z" fill="#3E54AC"/>
<path d="M6.20999 5.53002C6.12999 5.53002 6.04999 5.53002 5.97999 5.51002C5.82999 5.48002 5.73999 5.36002 5.73999 5.21002C5.73999 5.06002 5.82999 4.95002 5.96999 4.92002C6.03999 4.90002 6.11999 4.90002 6.19999 4.90002H12.43C12.62 4.90002 12.75 4.94002 12.83 5.01002C12.88 5.06002 12.9 5.13002 12.9 5.21002C12.9 5.29002 12.9 5.52002 12.44 5.52002H9.31999H6.21999L6.20999 5.53002Z" fill="#3E54AC"/>
<path d="M6.11999 7.16005C5.87999 7.16005 5.74999 7.06005 5.73999 6.87005C5.73999 6.70005 5.83999 6.57005 6.00999 6.55005H12.51C12.74 6.55005 12.89 6.66005 12.89 6.85005C12.89 6.94005 12.86 7.01005 12.8 7.07005C12.74 7.13005 12.65 7.16005 12.55 7.16005H11.78H6.10999H6.11999Z" fill="#3E54AC"/>
<path d="M2.77995 15.34C2.69995 15.34 2.60995 15.3 2.51995 15.21C2.26995 14.96 2.01995 14.72 1.77995 14.47C1.61995 14.31 1.60995 14.13 1.73995 14C1.79995 13.94 1.86995 13.91 1.94995 13.91C2.03995 13.91 2.12995 13.95 2.20995 14.03C2.33995 14.16 2.46995 14.28 2.59995 14.42C2.63995 14.46 2.69995 14.52 2.77995 14.52C2.85995 14.52 2.90995 14.47 2.95995 14.42C3.35995 14.01 3.75995 13.61 4.15995 13.21C4.23995 13.13 4.32995 13.09 4.42995 13.09C4.52995 13.09 4.59995 13.13 4.65995 13.21C4.69995 13.27 4.71995 13.33 4.71995 13.39C4.71995 13.49 4.68995 13.56 4.60995 13.64L4.25995 13.99C3.84995 14.4 3.43995 14.82 3.01995 15.23C2.93995 15.31 2.85995 15.35 2.77995 15.35V15.34Z" fill="#3E54AC"/>
<path d="M2.78006 11.25C2.70006 11.25 2.62006 11.21 2.54006 11.13C2.28006 10.88 2.02006 10.62 1.77006 10.36C1.63006 10.21 1.62006 10.03 1.74006 9.89999C1.80006 9.83999 1.87006 9.80999 1.95006 9.80999C2.03006 9.80999 2.12006 9.84999 2.20006 9.91999C2.33006 10.05 2.46006 10.17 2.58006 10.31C2.63006 10.36 2.69006 10.42 2.77006 10.42C2.85006 10.42 2.92006 10.36 2.96006 10.32C3.31006 9.95999 3.66006 9.60999 4.01006 9.25999L4.17006 9.09999C4.24006 9.02999 4.32006 8.98999 4.39006 8.98999C4.43006 8.98999 4.47006 8.98999 4.51006 9.01999C4.64006 9.06999 4.70006 9.15999 4.70006 9.29999C4.70006 9.38999 4.67006 9.46999 4.59006 9.54999L3.01006 11.13C2.93006 11.21 2.85006 11.25 2.77006 11.25H2.78006Z" fill="#3E54AC"/>
<path d="M2.77999 7.16003C2.69999 7.16003 2.61999 7.12003 2.53999 7.05003C2.26999 6.79003 2.00999 6.53003 1.75999 6.27003C1.61999 6.13003 1.61999 5.96003 1.73999 5.83003C1.79999 5.77003 1.86999 5.74003 1.94999 5.74003C2.02999 5.74003 2.11999 5.78003 2.18999 5.85003C2.31999 5.97003 2.44999 6.09003 2.55999 6.22003C2.60999 6.28003 2.67999 6.34003 2.76999 6.34003C2.85999 6.34003 2.92999 6.28003 2.97999 6.23003C3.25999 5.94003 3.53999 5.66003 3.81999 5.38003L4.16999 5.03003C4.24999 4.95003 4.32999 4.91003 4.40999 4.91003C4.44999 4.91003 4.48999 4.91003 4.52999 4.94003C4.65999 4.99003 4.71999 5.09003 4.71999 5.25003C4.71999 5.31003 4.67999 5.38003 4.60999 5.45003C4.60999 5.45003 3.38999 6.67003 3.00999 7.05003C2.92999 7.12003 2.84999 7.16003 2.77999 7.16003Z" fill="#3E54AC"/>
<path d="M6.06004 9.61C5.94004 9.61 5.84004 9.56 5.79004 9.47C5.74004 9.39 5.73004 9.29 5.77004 9.19C5.83004 9.06 5.92004 9 6.07004 9H9.31004C9.50004 9 9.63004 9.12 9.63004 9.3C9.63004 9.39 9.60004 9.46 9.55004 9.52C9.49004 9.58 9.40004 9.61 9.30004 9.61H6.72004H6.07004H6.06004Z" fill="#3E54AC"/>
<path d="M6.09999 11.25C5.88999 11.25 5.75999 11.15 5.73999 10.98C5.73999 10.88 5.75999 10.8 5.80999 10.74C5.86999 10.68 5.95999 10.64 6.06999 10.64H8.64999H9.31999C9.48999 10.64 9.60999 10.76 9.60999 10.93C9.60999 11.1 9.49999 11.23 9.31999 11.25H7.44999H6.09999Z" fill="#3E54AC"/>
<path d="M6.07003 15.34C5.91003 15.34 5.80003 15.27 5.76003 15.12C5.72003 14.98 5.76003 14.87 5.87003 14.78C5.93003 14.73 6.00003 14.71 6.09003 14.71H8.46003C8.67003 14.71 8.80003 14.83 8.81003 15.01C8.81003 15.09 8.78003 15.17 8.73003 15.22C8.67003 15.28 8.57003 15.32 8.46003 15.32H7.98003H6.07003V15.34Z" fill="#3E54AC"/>
<path d="M6.10999 13.7C5.97999 13.7 5.87999 13.67 5.81999 13.6C5.76999 13.55 5.73999 13.48 5.73999 13.39C5.73999 13.13 5.96999 13.09 6.09999 13.09H8.42999C8.55999 13.09 8.65999 13.13 8.72999 13.19C8.77999 13.24 8.80999 13.31 8.80999 13.39C8.80999 13.58 8.65999 13.69 8.42999 13.7H7.26999H6.10999Z" fill="#3E54AC"/>
<path d="M14.65 14.93C14.56 14.93 14.45 14.88 14.36 14.78C14.36 14.78 13.79 14.21 13.65 14.08C13.54 13.98 13.5 13.86 13.5 13.71C13.5 13.54 13.5 13.37 13.5 13.2V12.25C13.5 12.11 13.54 11.86 13.81 11.86C14.08 11.86 14.12 12.1 14.12 12.24C14.12 12.65 14.12 13.07 14.12 13.48C14.12 13.62 14.16 13.72 14.25 13.81C14.43 13.98 14.6 14.15 14.77 14.33C14.89 14.45 15.03 14.65 14.84 14.83C14.78 14.89 14.71 14.92 14.64 14.92L14.65 14.93Z" fill="#3E54AC"/>
</svg>
