<svg width="18" height="18" viewBox="0 0 18 18" fill="none" xmlns="http://www.w3.org/2000/svg">
<path d="M17.9799 2.03001C17.9799 1.09001 17.3399 0.30001 16.4099 0.0600098C16.3999 0.0600098 16.3799 0.0600098 16.3599 0.0600098C16.3099 0.0600098 16.2299 0.0500098 16.1599 0.0100098H8.72993C8.72993 0.0100098 8.65993 0.0300098 8.61993 0.0400098C8.51993 0.0600098 8.42993 0.0900098 8.33993 0.12001C7.46993 0.41001 6.92993 1.18001 6.92993 2.12001C6.92993 4.72001 6.92993 7.36001 6.92993 9.91001V12.39C6.92993 12.39 6.92993 12.47 6.92993 12.51C6.94993 12.64 7.00993 12.72 7.12993 12.77C7.16993 12.79 7.20993 12.8 7.24993 12.8C7.32993 12.8 7.40993 12.77 7.49993 12.69C7.77993 12.48 8.05993 12.27 8.33993 12.06C8.70993 11.79 9.07993 11.5 9.44993 11.22C9.58993 11.11 9.73993 11.06 9.92993 11.06C10.3199 11.06 10.6999 11.06 11.0899 11.06C11.8599 11.06 12.6299 11.06 13.3999 11.06C14.3799 11.06 15.1899 11.06 15.9599 11.06C17.0899 11.06 17.9699 10.16 17.9799 9.04001C17.9899 6.87001 17.9899 4.59001 17.9799 2.04001V2.03001ZM17.3399 8.92001C17.3399 9.66001 16.9299 10.2 16.2399 10.37C16.1099 10.4 15.9799 10.41 15.8599 10.41H14.7799C14.1599 10.41 13.5399 10.41 12.9199 10.41C11.6699 10.41 10.6599 10.41 9.73993 10.41C9.54993 10.41 9.39993 10.46 9.25993 10.57C8.97993 10.79 8.69993 11 8.41993 11.21C8.31993 11.29 8.20993 11.36 8.10993 11.44C8.06993 11.47 8.03993 11.49 7.99993 11.51C7.97993 11.52 7.96993 11.53 7.94993 11.54L7.75993 11.67L7.63993 11.47C7.56993 11.36 7.57993 11.25 7.57993 11.19C7.57993 11.19 7.57993 11.17 7.57993 11.16C7.57993 10.28 7.57993 9.41001 7.57993 8.53001C7.57993 6.46001 7.57993 4.31001 7.57993 2.20001C7.57993 1.76001 7.72993 1.36001 8.00993 1.08001C8.28993 0.80001 8.68993 0.64001 9.12993 0.64001H9.14993C9.98993 0.64001 10.8999 0.65001 12.0199 0.65001C12.6399 0.65001 13.2599 0.65001 13.8799 0.65001C14.4999 0.65001 15.1199 0.65001 15.7399 0.65001H15.8099C16.7799 0.65001 17.3599 1.23001 17.3599 2.19001V3.01001C17.3599 4.98001 17.3599 6.95001 17.3599 8.92001H17.3399Z" fill="#3E54AC"/>
<path d="M4.95 13.82C4.95 13.82 4.79 13.71 4.78 13.57C4.78 13.43 4.87 13.34 4.92 13.3C5.59 12.71 5.89 11.99 5.83 11.09C5.75 9.74997 4.57 8.65997 3.2 8.65997C2.91 8.65997 2.63 8.70997 2.36 8.80997C1.46 9.13997 0.81 9.86997 0.63 10.78C0.45 11.7 0.77 12.63 1.49 13.28C1.54 13.32 1.64 13.42 1.63 13.56C1.62 13.7 1.5 13.78 1.45 13.82C0.83 14.23 0.4 14.79 0.16 15.5C0.1 15.67 0.07 15.85 0.04 16.03C0.03 16.11 0.01 16.19 0 16.27V17.75C0.09 17.92 0.23 17.99 0.5 17.99H0.51C1.17 17.99 1.87 17.99 2.78 17.99C3.19 17.99 3.61 17.99 4.02 17.99C4.43 17.99 4.85 17.99 5.26 17.99H5.29C5.37 17.99 5.45 17.99 5.53 17.99C5.61 17.99 5.69 17.99 5.76 17.99C5.89 17.99 6 17.99 6.09 17.99C6.24 17.99 6.4 17.9 6.41 17.73C6.44 17.15 6.47 16.58 6.38 16.02C6.23 15.09 5.75 14.36 4.96 13.83L4.95 13.82ZM1.21 11.31C1.21 10.24 2.11 9.32997 3.18 9.31997H3.19C4.28 9.31997 5.17 10.21 5.18 11.3C5.18 11.82 4.98 12.32 4.61 12.7C4.23 13.09 3.73 13.3 3.2 13.3C2.12 13.3 1.21 12.39 1.21 11.31ZM5.69 17.25C5.59 17.35 5.45 17.35 5.4 17.35C5.08 17.35 4.74 17.35 4.3 17.35C4.12 17.35 3.38 17.35 3.19 17.35C3 17.35 2.82 17.35 2.64 17.35C2.46 17.35 2.27 17.35 2.09 17.35C1.66 17.35 1.33 17.35 1.02 17.35C0.85 17.35 0.65 17.29 0.65 16.98C0.65 16.45 0.65 15.89 0.93 15.36C1.37 14.5 2.25 13.96 3.23 13.96C3.4 13.96 3.57 13.98 3.73 14.01C4.82 14.22 5.68 15.17 5.77 16.29C5.78 16.42 5.78 16.55 5.78 16.67C5.78 16.77 5.78 16.87 5.78 16.97C5.78 17.01 5.79 17.15 5.69 17.25Z" fill="#3E54AC"/>
<path d="M15.2901 2.89C14.4401 2.89 13.6001 2.89 12.7501 2.89C11.8201 2.89 10.9001 2.89 9.97009 2.89H9.65009C9.65009 2.89 9.56009 2.89 9.51009 2.9C9.39009 2.92 9.31009 2.99 9.27009 3.11C9.23009 3.21 9.24009 3.31 9.30009 3.39C9.36009 3.48 9.48009 3.53 9.61009 3.53C9.97009 3.53 10.3501 3.53 10.8301 3.53C11.0901 3.53 11.3601 3.53 11.6201 3.53C11.8801 3.53 12.1501 3.53 12.4201 3.53C12.4201 3.53 13.8101 3.53 14.1001 3.53C14.5001 3.53 14.9001 3.53 15.3001 3.53C15.5401 3.53 15.6801 3.41 15.6901 3.21C15.6901 3.12 15.6601 3.05 15.6101 2.99C15.5401 2.92 15.4301 2.88 15.3001 2.88L15.2901 2.89Z" fill="#3E54AC"/>
<path d="M15.2501 5.21002C14.4401 5.21002 13.6301 5.21002 12.8301 5.21002C11.8101 5.21002 10.7901 5.21002 9.76009 5.21002H9.67009C9.67009 5.21002 9.58009 5.21002 9.53009 5.21002C9.38009 5.23002 9.27009 5.34002 9.24009 5.49002C9.22009 5.62002 9.31009 5.77002 9.44009 5.82002C9.51009 5.85002 9.59009 5.85002 9.69009 5.85002H11.1201H13.6601C14.1701 5.85002 14.6801 5.85002 15.2001 5.85002C15.2701 5.85002 15.3501 5.85002 15.4301 5.83002C15.5101 5.81002 15.5801 5.77002 15.6201 5.70002C15.6701 5.63002 15.6801 5.55002 15.6701 5.47002C15.6401 5.33002 15.5701 5.21002 15.2501 5.21002Z" fill="#3E54AC"/>
<path d="M12.39 7.52002C12.21 7.52002 12.02 7.52002 11.84 7.52002C11.7 7.52002 11.15 7.52002 11.02 7.52002C11.02 7.52002 10.32 7.52002 10.18 7.52002C9.99999 7.52002 9.80999 7.52002 9.62999 7.52002C9.38999 7.52002 9.24999 7.64002 9.23999 7.84002C9.23999 7.93002 9.26999 8.00002 9.31999 8.06002C9.38999 8.13002 9.49999 8.17002 9.61999 8.17002C10.08 8.17002 10.54 8.17002 10.99 8.17002C11.44 8.17002 11.92 8.17002 12.38 8.17002C12.51 8.17002 12.61 8.13002 12.68 8.07002C12.74 8.01002 12.76 7.94002 12.76 7.84002C12.76 7.56002 12.49 7.52002 12.38 7.52002H12.39Z" fill="#3E54AC"/>
</svg>
