<svg width="18" height="18" viewBox="0 0 18 18" fill="none" xmlns="http://www.w3.org/2000/svg">
<path d="M17.27 10.27C17.26 9.88 17.03 9.61 16.65 9.54C16.52 9.51 16.39 9.5 16.25 9.48C15.9 9.43 15.8 9.19 16 8.91C16.09 8.79 16.18 8.68 16.26 8.55C16.46 8.25 16.44 7.91 16.19 7.65C16.03 7.47 15.86 7.3 15.68 7.14C15.41 6.89 15.06 6.87 14.76 7.08C14.62 7.17 14.49 7.28 14.36 7.38C14.17 7.52 13.9 7.4 13.86 7.17C13.83 7 13.81 6.82 13.78 6.65C13.71 6.3 13.44 6.08 13.09 6.07C13.02 6.07 12.94 6.07 12.87 6.07C12.58 6.07 12.62 6.1 12.62 5.81C12.62 5 12.62 4.19 12.62 3.38C12.62 2.62 12.1 2.11 11.35 2.1C11.03 2.1 10.71 2.1 10.39 2.1C10.26 2.1 10.23 2.06 10.23 1.94C10.23 1.74 10.23 1.54 10.23 1.34C10.22 0.49 9.72 0 8.88 0C6.38 0 3.87 0 1.37 0C0.49 0 0 0.49 0 1.37C0 3.57 0 5.76 0 7.96C0 10.16 0 12.39 0 14.61C0 15.39 0.52 15.91 1.3 15.91C1.76 15.91 2.22 15.91 2.69 15.91C2.83 15.91 2.93 15.95 3.02 16.05C3.55 16.58 4.09 17.1 4.63 17.63C4.88 17.88 5.18 18.01 5.53 18.01C7.49 18.01 9.44 18.01 11.4 18.01C12.1 18.01 12.62 17.48 12.63 16.77C12.63 16.38 12.63 15.99 12.63 15.6C12.63 15.3 12.7733 15.1467 13.06 15.14C13.48 15.12 13.73 14.91 13.81 14.49C13.84 14.33 13.86 14.17 13.88 14.01C13.91 13.81 14.19 13.69 14.36 13.81C14.51 13.91 14.65 14.03 14.8 14.13C15.1 14.33 15.43 14.31 15.69 14.07C15.88 13.9 16.06 13.72 16.23 13.53C16.46 13.27 16.48 12.94 16.29 12.64C16.21 12.52 16.12 12.4 16.03 12.28C15.83 12.01 15.93 11.77 16.26 11.72C16.39 11.7 16.52 11.68 16.66 11.66C17.05 11.6 17.29 11.33 17.3 10.93C17.3 10.71 17.3 10.49 17.3 10.27H17.27ZM2.4 3.37C2.4 7.19 2.4 11.02 2.4 14.84C2.4 14.91 2.39 14.99 2.41 15.06C2.46 15.23 2.41 15.27 2.24 15.27C1.94 15.26 1.64 15.27 1.34 15.27C0.87 15.27 0.65 15.05 0.65 14.58C0.65 12.37 0.65 10.16 0.65 7.95C0.65 5.74 0.65 3.57 0.65 1.38C0.65 0.84 0.85 0.64 1.39 0.64C3.88 0.64 6.37 0.64 8.86 0.64C9.38 0.64 9.58 0.84 9.58 1.35C9.58 1.53 9.57 1.71 9.58 1.89C9.59 2.06 9.53 2.09 9.38 2.09C8.04 2.09 6.7 2.09 5.36 2.09C4.8 2.09 4.25 2.09 3.69 2.09C2.92 2.09 2.4 2.6 2.4 3.37ZM5.19 17.18C5.19 17.18 5.18 17.2 5.15 17.23C4.49 16.59 3.83 15.94 3.17 15.29C3.2 15.27 3.22 15.25 3.23 15.25C3.78 15.25 4.34 15.25 4.89 15.25C5.06 15.25 5.18 15.34 5.18 15.51C5.18 16.06 5.18 16.62 5.18 17.17L5.19 17.18ZM11.97 16.73C11.97 17.12 11.74 17.36 11.35 17.36C9.57 17.36 7.79 17.36 6.01 17.36C5.87 17.36 5.84 17.31 5.84 17.19C5.84 16.67 5.84 16.15 5.84 15.62C5.84 14.98 5.47 14.61 4.83 14.61C4.31 14.61 3.79 14.61 3.26 14.61C3.09 14.61 3.03 14.57 3.04 14.39C3.04 12.55 3.04 10.71 3.04 8.87C3.04 7.03 3.04 5.26 3.04 3.45C3.04 2.94 3.24 2.74 3.76 2.74C6.26 2.74 8.75 2.74 11.25 2.74C11.76 2.74 11.97 2.95 11.97 3.46C11.97 4.32 11.97 5.17 11.97 6.03C11.97 6.13 11.96 6.22 11.87 6.29C11.64 6.5 11.66 6.8 11.62 7.07C11.56 7.44 11.33 7.53 11.02 7.3C10.91 7.22 10.8 7.13 10.68 7.05C10.4 6.87 10.06 6.89 9.81 7.11C9.62 7.29 9.43 7.47 9.26 7.66C9.04 7.91 9.02 8.23 9.2 8.51C9.29 8.66 9.4 8.79 9.51 8.93C9.66 9.14 9.56 9.4 9.3 9.45C9.16 9.47 9.02 9.49 8.88 9.51C8.46 9.57 8.22 9.85 8.21 10.28C8.21 10.49 8.21 10.7 8.21 10.9C8.22 11.31 8.46 11.57 8.87 11.64C9.01 11.66 9.15 11.68 9.29 11.71C9.58 11.76 9.68 12.01 9.5 12.24C9.41 12.36 9.31 12.48 9.23 12.61C9.03 12.91 9.04 13.25 9.29 13.51C9.46 13.69 9.63 13.87 9.81 14.04C10.08 14.28 10.41 14.3 10.71 14.1C10.85 14.01 10.98 13.9 11.12 13.8C11.32 13.66 11.59 13.77 11.63 14.01C11.65 14.18 11.68 14.34 11.71 14.51C11.73 14.63 11.76 14.75 11.85 14.82C12.01 14.95 12.01 15.11 12 15.29C12 15.77 12 16.24 12 16.72L11.97 16.73ZM16.3 11.05C15.82 11.09 15.45 11.25 15.29 11.75C15.2 12.05 15.22 12.33 15.42 12.58C15.54 12.73 15.74 12.88 15.72 13.05C15.7 13.22 15.47 13.32 15.36 13.46C15.24 13.61 15.14 13.62 15 13.49C14.93 13.42 14.84 13.37 14.76 13.31C14.33 13 13.83 13.04 13.45 13.4C13.27 13.57 13.24 13.79 13.2 14.02C13.11 14.55 13.25 14.47 12.7 14.47C12.33 14.47 12.33 14.47 12.27 14.1C12.26 14.01 12.23 13.93 12.23 13.84C12.17 13.18 11.2 12.85 10.72 13.28C10.59 13.4 10.44 13.58 10.28 13.57C10.11 13.56 10.01 13.33 9.87 13.21C9.7 13.08 9.71 12.96 9.85 12.82C9.91 12.76 9.95 12.69 10 12.63C10.4 12.13 10.24 11.74 9.98 11.35C9.85 11.16 9.64 11.1 9.42 11.07C8.85 11 8.86 11 8.84 10.43C8.84 10.23 8.88 10.13 9.1 10.13C9.2 10.13 9.31 10.09 9.42 10.08C10.15 10.03 10.47 9.04 10.02 8.53C9.68 8.14 9.7 8.12 10.08 7.74C10.22 7.6 10.3633 7.58667 10.51 7.7C10.6 7.76 10.69 7.82 10.77 7.89C11.26 8.3 12.22 7.91 12.25 7.28C12.25 7.19 12.28 7.09 12.29 7C12.3233 6.78667 12.4533 6.68 12.68 6.68C13.16 6.68 13.19 6.68 13.22 7.15C13.28 8.02 14.32 8.29 14.82 7.83C15.18 7.5 15.21 7.53 15.57 7.88C15.7033 8.01333 15.7667 8.1 15.76 8.14C15.76 8.14 15.73 8.2 15.7 8.23C15.63 8.32 15.57 8.42 15.5 8.5C15.08 9.02 15.26 9.39 15.5 9.77C15.65 10.01 15.92 10.05 16.17 10.09C16.65 10.17 16.65 10.16 16.65 10.65C16.65 10.98 16.65 11 16.33 11.02L16.3 11.05Z" fill="#3E54AC"/>
<path d="M4.20007 6.71006C5.73007 6.71006 7.26007 6.71006 8.80007 6.71006C9.05007 6.71006 9.20007 6.58006 9.20007 6.38006C9.20007 6.18006 9.05007 6.06006 8.80007 6.06006C8.04007 6.06006 7.27007 6.06006 6.51007 6.06006C5.74007 6.06006 4.97007 6.06006 4.20007 6.06006C3.96007 6.06006 3.82007 6.17006 3.82007 6.37006C3.82007 6.58006 3.96007 6.70006 4.21007 6.70006L4.20007 6.71006Z" fill="#3E54AC"/>
<path d="M8.07006 7.91002C8.01006 7.90002 7.95006 7.90002 7.89006 7.90002C6.68006 7.90002 5.47006 7.90002 4.26006 7.90002C4.19006 7.90002 4.11006 7.90002 4.04006 7.92002C3.89006 7.96002 3.81006 8.07002 3.81006 8.23002C3.81006 8.39002 3.90006 8.49002 4.06006 8.53002C4.13006 8.55002 4.21006 8.54002 4.28006 8.54002C4.87006 8.54002 5.46006 8.54002 6.05006 8.54002C6.64006 8.54002 7.25006 8.54002 7.86006 8.54002C7.93006 8.54002 7.99006 8.54002 8.06006 8.54002C8.23006 8.52002 8.33006 8.42002 8.33006 8.25002C8.33006 8.07002 8.25006 7.96002 8.07006 7.92002V7.91002Z" fill="#3E54AC"/>
<path d="M6.18004 4.86998C6.79004 4.86998 7.40004 4.86998 8.01004 4.86998C8.64004 4.86998 9.27004 4.86998 9.90004 4.86998C10.12 4.86998 10.25 4.75998 10.26 4.57998C10.27 4.36998 10.13 4.22998 9.87004 4.22998C8.65004 4.22998 7.42004 4.22998 6.20004 4.22998C5.93004 4.22998 5.79004 4.34998 5.79004 4.55998C5.79004 4.75998 5.93004 4.86998 6.19004 4.86998H6.18004Z" fill="#3E54AC"/>
<path d="M7.48007 11.8701C7.48007 11.6701 7.34007 11.5601 7.10007 11.5601C6.62007 11.5601 6.14007 11.5601 5.66007 11.5601C5.18007 11.5601 4.70007 11.5601 4.22007 11.5601C3.96007 11.5601 3.82007 11.6701 3.82007 11.8701C3.82007 12.0701 3.96007 12.2001 4.21007 12.2001C5.17007 12.2001 6.14007 12.2001 7.10007 12.2001C7.35007 12.2001 7.49007 12.0801 7.49007 11.8701H7.48007Z" fill="#3E54AC"/>
<path d="M4.20006 10.37C4.67006 10.37 5.15006 10.37 5.62006 10.37C6.09006 10.37 6.60006 10.37 7.09006 10.37C7.34006 10.37 7.47006 10.26 7.48006 10.06C7.48006 9.84998 7.34006 9.72998 7.09006 9.72998C6.13006 9.72998 5.16006 9.72998 4.20006 9.72998C3.96006 9.72998 3.82006 9.84998 3.81006 10.04C3.81006 10.25 3.94006 10.37 4.20006 10.37Z" fill="#3E54AC"/>
<path d="M7.94996 14.03C8.18996 14.03 8.32996 13.91 8.31996 13.71C8.31996 13.52 8.17996 13.39 7.95996 13.39C7.15996 13.39 6.36996 13.39 5.56996 13.39C5.33996 13.39 5.20996 13.51 5.20996 13.71C5.20996 13.91 5.33996 14.03 5.57996 14.03C5.96996 14.03 6.36996 14.03 6.75996 14.03C7.14996 14.03 7.54996 14.03 7.93996 14.03H7.94996Z" fill="#3E54AC"/>
<path d="M10.7801 15.23C10.5201 15.23 10.2601 15.23 10.0001 15.23C9.73009 15.23 9.47009 15.23 9.20009 15.23C8.97009 15.23 8.84009 15.35 8.84009 15.54C8.84009 15.73 8.97009 15.87 9.19009 15.87C9.72009 15.87 10.2601 15.87 10.7901 15.87C11.0101 15.87 11.1401 15.73 11.1301 15.54C11.1301 15.36 10.9901 15.24 10.7801 15.23Z" fill="#3E54AC"/>
<path d="M8.00006 15.23C7.81006 15.23 7.63006 15.23 7.44006 15.23C7.26006 15.23 7.08006 15.23 6.90006 15.23C6.70006 15.23 6.56006 15.37 6.56006 15.55C6.56006 15.72 6.69006 15.87 6.88006 15.87C7.26006 15.87 7.64006 15.87 8.02006 15.87C8.21006 15.87 8.33006 15.72 8.33006 15.54C8.33006 15.36 8.20006 15.24 8.01006 15.23H8.00006Z" fill="#3E54AC"/>
<path d="M12.85 8.40001C11.63 8.33001 10.61 9.27001 10.55 10.52C10.55 11.67 11.28 12.67 12.62 12.76C13.89 12.84 14.87 11.93 14.93 10.62C14.99 9.48001 14.03 8.46001 12.85 8.39001V8.40001ZM12.74 12.14C11.86 12.14 11.2 11.47 11.21 10.58C11.21 9.70001 11.89 9.04001 12.75 9.05001C13.63 9.05001 14.27 9.72001 14.27 10.61C14.27 11.49 13.61 12.15 12.74 12.15V12.14Z" fill="#3E54AC"/>
</svg>
