<svg width="16" height="16" viewBox="0 0 16 16" fill="none" xmlns="http://www.w3.org/2000/svg">
<path d="M8 5.75012V12.5001M4.625 9.12512H11.375M5.765 1.13012L1.7225 4.28012C1.0475 4.80512 0.5 5.92262 0.5 6.77012V12.3276C0.5 14.0676 1.9175 15.4926 3.6575 15.4926H12.3425C14.0825 15.4926 15.5 14.0676 15.5 12.3351V6.87512C15.5 5.96762 14.8925 4.80512 14.15 4.28762L9.515 1.04012C8.465 0.305122 6.7775 0.342622 5.765 1.13012ZM6.875 12.5001H9.125C10.3625 12.5001 11.375 11.4876 11.375 10.2501V8.00012C11.375 6.76262 10.3625 5.75012 9.125 5.75012H6.875C5.6375 5.75012 4.625 6.76262 4.625 8.00012V10.2501C4.625 11.4876 5.6375 12.5001 6.875 12.5001Z" stroke="black" stroke-linecap="round" stroke-linejoin="round"/>
</svg>
