<svg width="19" height="18" viewBox="0 0 19 18" fill="none" xmlns="http://www.w3.org/2000/svg">
<path d="M18.0127 0.42C18.0127 0.08 17.9327 0 17.6027 0C13.2327 0 8.86274 0 4.50274 0C4.16274 0 4.08274 0.08 4.08274 0.43C4.08274 3.53 4.08274 6.62 4.08274 9.72C4.08274 9.77 4.08274 9.82 4.08274 9.87C4.10274 10.03 4.21274 10.14 4.37274 10.14C4.53274 10.14 4.64274 10.03 4.66274 9.87C4.66274 9.81 4.66274 9.75 4.66274 9.69C4.66274 6.72 4.66274 3.75 4.66274 0.78C4.66274 0.64 4.67274 0.58 4.84274 0.58C8.98274 0.58 13.1227 0.58 17.2727 0.58C17.4027 0.58 17.4527 0.6 17.4427 0.74C17.4427 6.24 17.4427 11.75 17.4427 17.25C17.4427 17.38 17.4127 17.42 17.2727 17.42C13.1227 17.42 8.97274 17.42 4.82274 17.42C4.72274 17.42 4.65274 17.42 4.62274 17.3C4.59274 17.19 4.49274 17.14 4.38274 17.13C4.27274 17.13 4.17274 17.17 4.12274 17.27C4.04274 17.46 4.04274 17.66 4.12274 17.85C4.19274 18.02 4.36274 18 4.51274 18C8.86274 18 13.2227 18 17.5727 18C17.9327 18 18.0127 17.92 18.0127 17.56C18.0127 14.71 18.0127 11.85 18.0127 9C18.0127 6.15 18.0127 3.28 18.0127 0.42Z" fill="#3E54AC"/>
<path d="M9.1427 3.19996C8.8327 3.19996 8.5227 3.19996 8.2127 3.19996C7.6227 3.19996 7.2627 3.55996 7.2627 4.14996C7.2627 5.05996 7.2627 5.97996 7.2627 6.88996C7.2627 7.48996 7.6127 7.84996 8.2227 7.84996C9.1627 7.84996 10.0927 7.84996 11.0327 7.84996C11.9927 7.84996 12.9427 7.84996 13.9027 7.84996C14.4427 7.84996 14.8127 7.47996 14.8127 6.93996C14.8127 5.99996 14.8127 5.04996 14.8127 4.10996C14.8127 3.57996 14.4427 3.20996 13.9127 3.20996C13.5827 3.20996 13.2427 3.20996 12.9127 3.20996C12.8127 3.20996 12.7727 3.18996 12.7827 3.07996C12.7827 2.83996 12.7827 2.59996 12.7827 2.34996C12.7827 1.83996 12.4127 1.46996 11.9027 1.45996C11.3327 1.45996 10.7527 1.45996 10.1827 1.45996C9.6827 1.45996 9.3127 1.83996 9.3027 2.32996C9.3027 2.56996 9.3027 2.79996 9.3027 3.03996C9.3027 3.15996 9.2727 3.20996 9.1427 3.19996ZM8.4227 5.52996C8.4227 6.05996 8.4227 6.57996 8.4227 7.10996C8.4227 7.23996 8.3827 7.26996 8.2627 7.26996C7.9327 7.26996 7.8427 7.17996 7.8427 6.84996C7.8427 5.95996 7.8427 5.06996 7.8427 4.18996C7.8427 3.84996 8.0327 3.70996 8.3627 3.77996C8.4627 3.79996 8.4227 3.86996 8.4227 3.91996C8.4227 4.45996 8.4227 4.98996 8.4227 5.52996ZM13.6527 5.52996C13.6527 4.99996 13.6527 4.47996 13.6527 3.94996C13.6527 3.81996 13.6727 3.76996 13.8127 3.77996C14.1427 3.77996 14.2327 3.86996 14.2327 4.19996C14.2327 5.08996 14.2327 5.97996 14.2327 6.85996C14.2327 7.18996 14.0327 7.34996 13.7127 7.26996C13.6127 7.24996 13.6527 7.17996 13.6527 7.12996C13.6527 6.59996 13.6527 6.06996 13.6527 5.53996V5.52996ZM12.6427 3.77996C13.0727 3.77996 13.0727 3.77996 13.0727 4.20996C13.0727 5.15996 13.0727 6.11996 13.0727 7.06996C13.0727 7.20996 13.0527 7.26996 12.8927 7.25996C12.4927 7.24996 12.4927 7.25996 12.4927 6.84996V5.50996C12.4927 4.97996 12.4927 4.45996 12.4927 3.92996C12.4927 3.80996 12.5127 3.75996 12.6427 3.75996V3.77996ZM11.7627 7.26996C11.2827 7.26996 10.8127 7.26996 10.3327 7.26996C10.2127 7.26996 10.1727 7.23996 10.1727 7.10996C10.1727 6.57996 10.1727 6.04996 10.1727 5.50996C10.1727 4.96996 10.1727 4.45996 10.1727 3.92996C10.1727 3.79996 10.2127 3.76996 10.3327 3.76996C10.8127 3.76996 11.2827 3.76996 11.7627 3.76996C11.8827 3.76996 11.9127 3.79996 11.9127 3.91996C11.9127 4.97996 11.9127 6.04996 11.9127 7.10996C11.9127 7.22996 11.8727 7.25996 11.7627 7.25996V7.26996ZM9.8827 2.36996C9.8827 2.14996 9.9927 2.03996 10.2227 2.03996C10.7727 2.03996 11.3227 2.03996 11.8727 2.03996C12.1027 2.03996 12.2027 2.14996 12.2127 2.36996C12.2127 2.59996 12.2127 2.82996 12.2127 3.05996C12.2127 3.16996 12.1827 3.19996 12.0727 3.19996C11.7327 3.19996 11.3827 3.19996 11.0427 3.19996C10.7027 3.19996 10.3627 3.19996 10.0327 3.19996C9.9227 3.19996 9.8927 3.16996 9.8927 3.05996C9.8927 2.82996 9.8927 2.59996 9.8927 2.36996H9.8827ZM9.5927 4.17996V5.53996C9.5927 6.05996 9.5927 6.57996 9.5927 7.09996C9.5927 7.21996 9.5727 7.26996 9.4427 7.26996C9.0127 7.26996 9.0127 7.26996 9.0127 6.83996C9.0127 5.87996 9.0127 4.91996 9.0127 3.95996C9.0127 3.80996 9.0527 3.77996 9.1927 3.77996C9.5927 3.77996 9.5927 3.77996 9.5927 4.17996Z" fill="#3E54AC"/>
<path d="M4.5926 16.2C5.3426 15.89 5.8126 15.3 6.1426 14.59C6.5426 13.72 6.6626 12.8 6.6926 11.86C6.6926 11.75 6.7126 11.65 6.7726 11.55C7.0826 11 7.3926 10.44 7.7026 9.89002C7.8126 9.69002 7.8826 9.48002 7.8826 9.25002C7.8826 8.75002 7.5526 8.28002 7.1126 8.15002C6.6826 8.02002 6.3126 8.19002 6.0026 8.65002C5.4126 9.53002 4.8126 10.42 4.2226 11.3C4.0526 11.56 4.0526 11.72 4.2226 11.83C4.3826 11.93 4.5326 11.87 4.7026 11.62C5.3126 10.71 5.9226 9.80002 6.5326 8.90002C6.7126 8.63002 6.9826 8.62002 7.1726 8.87002C7.3526 9.10002 7.3426 9.35002 7.2026 9.60002C6.8726 10.19 6.5426 10.78 6.2126 11.37C6.1626 11.46 6.1226 11.55 6.1226 11.66C6.1226 12.04 6.1026 12.41 6.0526 12.78C5.9626 13.46 5.7926 14.11 5.4426 14.7C5.2026 15.09 4.9026 15.44 4.4726 15.62C4.2726 15.7 4.1226 15.82 3.9926 15.99C3.9426 16.05 3.8926 16.11 3.8426 16.17C3.4826 16.61 3.1126 17.04 2.7526 17.48C2.5926 17.68 2.6426 17.91 2.8526 17.98C3.0126 18.03 3.1126 17.95 3.2126 17.83C3.6326 17.33 4.0526 16.83 4.4626 16.33C4.5026 16.28 4.5426 16.23 4.6126 16.2H4.5926Z" fill="#3E54AC"/>
<path d="M2.3328 10.6101C2.3428 10.1901 2.4828 9.83005 2.7828 9.54005C3.0728 9.25005 3.3528 8.97005 3.6428 8.68005C3.8028 8.51005 3.8228 8.35005 3.6928 8.22005C3.5628 8.09005 3.3928 8.10005 3.2328 8.26005C2.9528 8.54005 2.6728 8.83005 2.3828 9.11005C1.9528 9.53005 1.7528 10.0401 1.7428 10.6401C1.7228 11.6101 1.7528 12.5901 1.7428 13.5601C1.7428 13.9501 1.6328 14.3101 1.3828 14.6201C1.2328 14.8101 1.0928 15.0101 0.942796 15.2001C0.652796 15.5901 0.362796 15.9701 0.0727956 16.3601C-0.00720444 16.4701 -0.0272044 16.5801 0.0427956 16.7001C0.102796 16.8001 0.182796 16.8401 0.292796 16.8501C0.422796 16.8501 0.502796 16.7701 0.562796 16.6801C0.942796 16.1701 1.3128 15.6401 1.7228 15.1501C2.1728 14.6001 2.3528 13.9901 2.3328 13.2901C2.3128 12.4001 2.2928 11.5101 2.3228 10.6301L2.3328 10.6101Z" fill="#3E54AC"/>
<path d="M8.91272 15.78C8.92272 16.11 9.09272 16.28 9.37272 16.26C9.54272 16.24 9.69272 16.17 9.83272 16.05C9.98272 15.92 10.1027 15.77 10.2227 15.62C10.2727 15.56 10.3027 15.49 10.3827 15.47C10.4127 15.59 10.4327 15.71 10.4627 15.82C10.5727 16.2 10.9227 16.36 11.2927 16.2C11.4527 16.13 11.5827 16.02 11.7027 15.9C11.7927 15.81 11.8527 15.77 11.9527 15.9C12.0627 16.04 12.2327 16.1 12.4027 16.15C12.6927 16.23 12.9927 16.26 13.3027 16.26C13.5327 16.26 13.6627 16.15 13.6727 15.97C13.6727 15.79 13.5427 15.68 13.3127 15.68C13.0927 15.68 12.8627 15.66 12.6427 15.61C12.4727 15.57 12.3327 15.5 12.2627 15.32C12.1727 15.12 11.9727 15.05 11.7627 15.14C11.6227 15.2 11.5127 15.3 11.3927 15.4C11.3127 15.48 11.2227 15.56 11.1427 15.63C11.0627 15.7 11.0127 15.68 11.0027 15.57C10.9927 15.46 10.9727 15.35 10.9527 15.25C10.8627 14.83 10.5127 14.68 10.1427 14.91C9.96272 15.02 9.83272 15.2 9.69272 15.36C9.64272 15.41 9.61272 15.49 9.52272 15.51C9.52272 15.43 9.52272 15.35 9.52272 15.28C9.52272 15 9.52272 14.72 9.23272 14.57C8.93272 14.42 8.69272 14.59 8.47272 14.76C8.23272 14.94 8.05272 15.18 7.85272 15.39C7.73272 15.52 7.62272 15.65 7.44272 15.71C7.29272 15.76 7.25272 15.89 7.28272 16.03C7.31272 16.18 7.42272 16.25 7.57272 16.25C7.74272 16.25 7.87272 16.16 7.99272 16.06C8.19272 15.89 8.36272 15.69 8.53272 15.5C8.65272 15.37 8.76272 15.24 8.95272 15.13C8.95272 15.26 8.95272 15.36 8.93272 15.47C8.93272 15.57 8.91272 15.68 8.91272 15.78Z" fill="#3E54AC"/>
<path d="M15.7227 9C15.6727 9 15.6127 9 15.5627 9C14.4927 9 13.4227 9 12.3527 9C11.2827 9 10.2127 9 9.14267 9C9.09267 9 9.03267 9 8.98267 9C8.82267 9.03 8.73267 9.12 8.73267 9.29C8.73267 9.45 8.82267 9.55 8.98267 9.58C9.03267 9.58 9.09267 9.58 9.14267 9.58C11.2827 9.58 13.4227 9.58 15.5627 9.58C15.6127 9.58 15.6727 9.58 15.7227 9.58C15.8827 9.55 15.9727 9.45 15.9727 9.29C15.9727 9.13 15.8827 9.03 15.7227 9Z" fill="#3E54AC"/>
<path d="M15.6027 10.74C14.2027 10.74 12.8127 10.74 11.4127 10.74C11.1827 10.74 11.0527 10.84 11.0427 11.02C11.0427 11.21 11.1727 11.32 11.4127 11.32C12.1127 11.32 12.8027 11.32 13.5027 11.32C14.2027 11.32 14.9027 11.32 15.6027 11.32C15.8327 11.32 15.9627 11.22 15.9727 11.04C15.9727 10.85 15.8427 10.74 15.6027 10.74Z" fill="#3E54AC"/>
<path d="M7.2726 12.81C7.2926 12.97 7.4126 13.06 7.6126 13.06C8.3126 13.06 9.0126 13.06 9.7126 13.06C9.9426 13.06 10.1726 13.06 10.4026 13.06C10.8926 13.06 11.3826 13.06 11.8726 13.06C12.0226 13.06 12.1326 13 12.1826 12.86C12.2226 12.74 12.1826 12.63 12.0926 12.55C12.0126 12.48 11.9126 12.48 11.8226 12.48C10.7426 12.48 9.6726 12.48 8.5926 12.48C8.2626 12.48 7.9226 12.48 7.5926 12.48C7.3826 12.48 7.2426 12.62 7.2726 12.81Z" fill="#3E54AC"/>
<path d="M15.6128 13.06C15.8428 13.06 15.9728 12.95 15.9828 12.77C15.9828 12.59 15.8528 12.48 15.6228 12.48C14.8928 12.48 14.1728 12.48 13.4428 12.48C13.2128 12.48 13.0828 12.59 13.0728 12.77C13.0728 12.96 13.2028 13.06 13.4528 13.06C13.8128 13.06 14.1628 13.06 14.5228 13.06C14.8828 13.06 15.2528 13.06 15.6128 13.06Z" fill="#3E54AC"/>
<path d="M9.00277 11.32C9.28277 11.32 9.56277 11.32 9.83277 11.32C10.0328 11.32 10.1628 11.21 10.1628 11.04C10.1628 10.86 10.0328 10.74 9.82277 10.74C9.27277 10.74 8.72277 10.74 8.17277 10.74C7.97277 10.74 7.84277 10.85 7.84277 11.02C7.84277 11.2 7.97277 11.31 8.18277 11.32C8.45277 11.32 8.72277 11.32 9.00277 11.32Z" fill="#3E54AC"/>
</svg>
