<svg width="196" height="58" viewBox="0 0 196 58" fill="none" xmlns="http://www.w3.org/2000/svg">
<path d="M40.7241 7.01367H48.5584L57.2424 23.1613L65.926 7.01367H73.7603V45.2009H66.5397V20.2703L57.2424 36.5817H57.0534L47.8505 20.434V45.2009H40.7241V7.01367Z" fill="white"/>
<mask id="mask0_89_1341" style="mask-type:luminance" maskUnits="userSpaceOnUse" x="0" y="0" width="196" height="58">
<path d="M196 0.239746H0V57.6338H196V0.239746Z" fill="white"/>
</mask>
<g mask="url(#mask0_89_1341)">
<path d="M81.6904 7.01367H95.1888C103.07 7.01367 107.837 12.36 107.837 20.2155V20.3248C107.837 29.2168 101.89 33.7449 94.4808 33.7449H88.9585V45.2009H81.6904V7.01367ZM94.7163 26.2708C98.3503 26.2708 100.474 23.7618 100.474 20.4877V20.3786C100.474 16.6144 98.2087 14.5955 94.5745 14.5955H88.9585V26.2708H94.7163Z" fill="white"/>
<path d="M117.018 16.1213H117.347L120.816 51.7785L117.182 57.6337L113.548 51.7785L117.018 16.1213Z" fill="white"/>
<path d="M126.244 7.01367H134.268L142.904 33.909L151.54 7.01442H159.375L146.019 45.4737H139.6L126.244 7.01367Z" fill="white"/>
<path d="M160.887 26.2166V26.1075C160.887 15.2512 168.296 6.35913 178.491 6.35913C188.685 6.35913 196 15.1419 196 25.9982V26.1075C196 36.9636 188.59 45.8557 178.396 45.8557C168.202 45.8557 160.887 37.0728 160.887 26.2166ZM188.401 26.2166V26.1075C188.401 19.5609 184.249 14.1059 178.395 14.1059C172.542 14.1059 168.485 19.4517 168.485 25.9982V26.1075C168.485 32.6538 172.638 38.1089 178.491 38.1089C184.344 38.1089 188.401 32.7631 188.401 26.2166Z" fill="white"/>
<path d="M117.183 12.64C116.397 12.64 115.634 12.335 115.017 11.7738C114.399 11.2127 113.962 10.428 113.777 9.54566L112.873 5.24889C112.747 4.65274 112.741 4.03146 112.853 3.4319C112.966 2.83235 113.195 2.27018 113.523 1.78781C113.851 1.30544 114.269 0.915461 114.747 0.647293C115.224 0.379125 115.748 0.239772 116.278 0.239746L118.087 0.239746C118.617 0.239744 119.141 0.379076 119.619 0.647231C120.096 0.915387 120.514 1.30536 120.842 1.78774C121.17 2.27011 121.399 2.83229 121.512 3.43186C121.625 4.03143 121.618 4.65273 121.493 5.24889L120.589 9.54566C120.403 10.428 119.966 11.2127 119.349 11.7738C118.731 12.335 117.968 12.64 117.183 12.64Z" fill="white"/>
<path d="M33.785 7.01367H8.86621V14.4878H33.785V7.01367Z" fill="white"/>
<path d="M33.785 37.7268H8.86621V45.2009H33.785V37.7268Z" fill="white"/>
<path d="M6.46591 7.01367H0V45.2826H6.46591V7.01367Z" fill="white"/>
<path d="M30.0813 22.3313H9.10205V29.8054H30.0813V22.3313Z" fill="white"/>
<path d="M1.6579 49.9614H2.25647L3.87352 54.2396H3.19048L2.81769 53.2139H1.08044L0.702616 54.2396H0.0410156L1.6579 49.9614ZM2.58183 52.5526L1.94671 50.8533L1.31678 52.5526H2.58183Z" fill="white"/>
<path d="M5.38275 50.6834H4.21191V49.9917H7.19927V50.6834H6.02843V54.2397H5.38275V50.6834Z" fill="white"/>
<path d="M7.99854 53.6204L8.38708 53.0868C8.69749 53.4372 9.11321 53.6349 9.54703 53.6387C9.94614 53.6387 10.1981 53.4205 10.1981 53.1047V53.0926C10.1981 52.7952 10.0519 52.6193 9.36868 52.4434C8.58639 52.231 8.14554 51.9518 8.14554 51.175V51.1626C8.14554 50.4349 8.67037 49.9309 9.40003 49.9309C9.88538 49.9196 10.3583 50.109 10.7335 50.4651L10.387 51.0284C10.1043 50.7616 9.75427 50.6083 9.38963 50.5916C9.01181 50.5916 8.79122 50.81 8.79122 51.0952V51.1076C8.79122 51.4351 8.95918 51.581 9.66837 51.7751C10.4401 52.0055 10.8444 52.3093 10.8444 53.0189V53.0312C10.8444 53.8322 10.3037 54.2996 9.53193 54.2996C8.96473 54.3067 8.41652 54.0636 7.99902 53.6197" fill="white"/>
<path d="M15.3781 49.9614H15.9765L17.5936 54.2396H16.9113L16.5386 53.2139H14.8005L14.4223 54.2396H13.7612L15.3781 49.9614ZM16.302 52.5526L15.6669 50.8533L15.037 52.5526H16.302Z" fill="white"/>
<path d="M18.6724 49.9917H19.2708L21.2395 52.9289V49.9917H21.8746V54.2395H21.334L19.3075 51.2176V54.2395H18.6724V49.9917Z" fill="white"/>
<path d="M23.2686 49.9917H24.6385C25.7935 49.9917 26.5915 50.9082 26.5915 52.1035V52.1159C26.5915 53.311 25.7935 54.2395 24.6385 54.2395H23.2686V49.9917ZM23.9142 50.6716V53.5598H24.6387C25.4104 53.5598 25.9145 52.9589 25.9145 52.1279V52.1161C25.9145 51.2843 25.4109 50.6716 24.6387 50.6716H23.9142Z" fill="white"/>
<path d="M29.8447 49.9916H31.4826C31.8706 49.9668 32.2515 50.1194 32.5429 50.4165C32.7446 50.6638 32.854 50.9929 32.8473 51.3326V51.345C32.8473 52.0428 32.4853 52.4617 31.976 52.6312L32.9682 54.2394H32.2017L31.2989 52.7587H30.4906V54.2394H29.8447V49.9916ZM31.4353 52.0976C31.8974 52.0976 32.1913 51.8244 32.1913 51.3877V51.3753C32.1913 50.9143 31.913 50.6717 31.4303 50.6717H30.4906V52.0978L31.4353 52.0976Z" fill="white"/>
<path d="M34.0889 49.9917H36.8136V50.6594H34.7344V51.7636H36.5771V52.4371H34.7344V53.5722H36.8396V54.2397H34.0889V49.9917Z" fill="white"/>
<path d="M37.8916 52.1276V52.1158C37.8859 51.8265 37.9308 51.5389 38.0236 51.2702C38.1164 51.0015 38.2553 50.7572 38.4318 50.5521C38.6083 50.3469 38.8188 50.1851 39.0508 50.0763C39.2827 49.9675 39.5313 49.914 39.7815 49.9189C40.0487 49.9068 40.3152 49.9593 40.5637 50.0732C40.8123 50.187 41.0376 50.3597 41.2251 50.5801L40.8104 51.1325C40.6763 50.9709 40.5159 50.8416 40.3384 50.7521C40.1609 50.6625 39.9698 50.6145 39.7762 50.6107C39.0832 50.6107 38.5688 51.2718 38.5688 52.1034V52.1158C38.5688 52.9468 39.0779 53.6203 39.7815 53.6203C40.2276 53.6203 40.5218 53.4138 40.8374 53.0743L41.2519 53.5595C41.0684 53.8065 40.8391 54.0025 40.5809 54.1328C40.3228 54.2631 40.0425 54.3244 39.7611 54.312C39.5131 54.3154 39.267 54.261 39.0376 54.152C38.8082 54.0431 38.6001 53.882 38.4257 53.6781C38.2513 53.4743 38.1142 53.232 38.0225 52.9656C37.9308 52.6992 37.8865 52.4142 37.8921 52.1276" fill="white"/>
<path d="M42.3825 49.9916H44.0203C44.4084 49.9668 44.7893 50.1194 45.0807 50.4165C45.2824 50.6638 45.3917 50.9929 45.3851 51.3326V51.345C45.3851 52.0428 45.023 52.4617 44.5138 52.6312L45.506 54.2394H44.7393L43.8363 52.7587H43.028V54.2394H42.3823L42.3825 49.9916ZM43.9731 52.0976C44.4352 52.0976 44.729 51.8244 44.729 51.3877V51.3753C44.729 50.9143 44.4508 50.6717 43.968 50.6717H43.0283V52.0978L43.9731 52.0976Z" fill="white"/>
<path d="M46.569 52.4369V49.9917H47.2149V52.4069C47.2149 53.2021 47.5613 53.6144 48.144 53.6144C48.7164 53.6144 49.0679 53.2201 49.0679 52.4369V49.9917H49.7136V52.4009C49.7136 53.6694 49.0942 54.3063 48.1334 54.3063C47.1832 54.3063 46.5688 53.6694 46.5688 52.4371" fill="white"/>
<path d="M51.7321 49.9917H51.0864V54.2395H51.7321V49.9917Z" fill="white"/>
<path d="M54.0587 50.6834H52.8877V49.9917H55.8749V50.6834H54.7042V54.2397H54.0585L54.0587 50.6834Z" fill="white"/>
<path d="M56.9956 49.9917H57.6832L58.8014 52.0008L59.9198 49.9917H60.6075V54.2395H59.9617V51.1934L58.8016 53.1961H58.7806L57.6309 51.2058V54.24H56.9958L56.9956 49.9917Z" fill="white"/>
<path d="M62.0015 49.9917H64.7262V50.6594H62.647V51.7636H64.4897V52.4371H62.647V53.5722H64.7521V54.2397H62.0015V49.9917Z" fill="white"/>
<path d="M65.9668 49.9917H66.5652L68.5338 52.9289V49.9917H69.1689V54.2395H68.6291L66.6019 51.2176V54.2395H65.9668V49.9917Z" fill="white"/>
<path d="M71.4604 50.6834H70.2896V49.9917H73.2767V50.6834H72.1061V54.2397H71.4604V50.6834Z" fill="white"/>
<path d="M76.1729 53.6204L76.5614 53.0868C76.8718 53.4372 77.2875 53.6349 77.7214 53.6387C78.1205 53.6387 78.3724 53.4205 78.3724 53.1047V53.0926C78.3724 52.7952 78.2262 52.6193 77.543 52.4434C76.7607 52.231 76.3199 51.9518 76.3199 51.175V51.1626C76.3199 50.4349 76.8447 49.9309 77.5743 49.9309C78.0597 49.9196 78.5326 50.109 78.9078 50.4651L78.5613 51.0284C78.2786 50.7616 77.9286 50.6083 77.564 50.5916C77.1861 50.5916 76.9655 50.81 76.9655 51.0952V51.1076C76.9655 51.4351 77.1335 51.581 77.8427 51.7751C78.6144 52.0055 79.0187 52.3093 79.0187 53.0189V53.0312C79.0187 53.8322 78.478 54.2996 77.7062 54.2996C77.139 54.3067 76.5908 54.0636 76.1733 53.6197" fill="white"/>
<path d="M80.0645 52.1277V52.1159C80.0625 51.8242 80.1112 51.5349 80.2077 51.2654C80.3041 50.9958 80.4464 50.7514 80.6261 50.5465C80.8057 50.3417 81.0191 50.1806 81.2537 50.0728C81.4882 49.965 81.739 49.9127 81.9913 49.919C82.2426 49.911 82.4928 49.9618 82.7267 50.0683C82.9606 50.1748 83.1735 50.3349 83.3525 50.539C83.5316 50.743 83.6731 50.9868 83.7685 51.2556C83.864 51.5245 83.9115 51.8129 83.9081 52.1035V52.1159C83.9101 52.4075 83.8614 52.6967 83.765 52.9663C83.6686 53.2358 83.5263 53.4803 83.3467 53.6851C83.167 53.89 82.9537 54.0511 82.7192 54.1589C82.4847 54.2667 82.2339 54.319 81.9816 54.3127C81.7303 54.3207 81.4801 54.27 81.2462 54.1634C81.0123 54.0569 80.7994 53.8968 80.6204 53.6928C80.4413 53.4887 80.2998 53.245 80.2044 52.9761C80.1089 52.7072 80.0614 52.4189 80.0648 52.1283M83.2304 52.1283V52.1164C83.2373 51.9218 83.2101 51.7275 83.1505 51.5453C83.0908 51.3631 82.9999 51.1967 82.8832 51.0561C82.7665 50.9156 82.6265 50.8037 82.4714 50.7273C82.3164 50.6508 82.1496 50.6114 81.9811 50.6113C81.8138 50.6109 81.6482 50.6496 81.4942 50.7252C81.3403 50.8009 81.2012 50.9118 81.0854 51.0513C80.9696 51.1909 80.8795 51.3561 80.8205 51.537C80.7615 51.718 80.7349 51.9109 80.7422 52.104V52.1164C80.7353 52.311 80.7626 52.5053 80.8223 52.6874C80.882 52.8696 80.9729 53.0359 81.0896 53.1764C81.2063 53.3169 81.3464 53.4287 81.5014 53.5051C81.6564 53.5815 81.8231 53.6209 81.9917 53.621C82.1589 53.6214 82.3245 53.5826 82.4785 53.507C82.6324 53.4314 82.7714 53.3204 82.8872 53.1809C83.003 53.0414 83.0931 52.8761 83.1521 52.6952C83.2111 52.5143 83.2377 52.3214 83.2304 52.1283Z" fill="white"/>
<path d="M85.1392 49.9917H85.7848V53.5592H87.7169V54.2391H85.1392V49.9917Z" fill="white"/>
<path d="M88.6735 52.4369V49.9917H89.3194V52.4069C89.3194 53.2021 89.6658 53.6144 90.2485 53.6144C90.8206 53.6144 91.1724 53.2201 91.1724 52.4369V49.9917H91.8181V52.4009C91.8181 53.6694 91.1987 54.3063 90.2379 54.3063C89.2877 54.3063 88.6733 53.6694 88.6733 52.4371" fill="white"/>
<path d="M94.0522 50.6834H92.8813V49.9917H95.8685V50.6834H94.6979V54.2397H94.0522V50.6834Z" fill="white"/>
<path d="M97.6711 49.9917H97.0254V54.2395H97.6711V49.9917Z" fill="white"/>
<path d="M98.9376 52.1277V52.1159C98.9355 51.8242 98.9842 51.535 99.0806 51.2655C99.177 50.9959 99.3193 50.7515 99.4989 50.5466C99.6785 50.3418 99.8919 50.1807 100.126 50.0729C100.361 49.9651 100.612 49.9128 100.864 49.919C101.115 49.911 101.365 49.9618 101.599 50.0683C101.833 50.1749 102.046 50.335 102.225 50.539C102.404 50.743 102.546 50.9868 102.641 51.2556C102.737 51.5245 102.784 51.8129 102.781 52.1035V52.1159C102.783 52.4076 102.734 52.6968 102.638 52.9664C102.541 53.236 102.399 53.4805 102.219 53.6853C102.039 53.8902 101.826 54.0513 101.591 54.159C101.357 54.2668 101.106 54.3191 100.854 54.3127C100.602 54.3206 100.352 54.2698 100.119 54.1632C99.8847 54.0566 99.6719 53.8965 99.493 53.6925C99.314 53.4884 99.1726 53.2447 99.0772 52.9759C98.9818 52.7071 98.9344 52.4188 98.9379 52.1283M102.103 52.1283V52.1164C102.11 51.9217 102.083 51.7274 102.023 51.5452C101.964 51.363 101.873 51.1966 101.756 51.056C101.639 50.9154 101.499 50.8036 101.344 50.7271C101.189 50.6507 101.022 50.6113 100.854 50.6113C100.686 50.6109 100.521 50.6496 100.367 50.7253C100.213 50.8009 100.074 50.9119 99.9581 51.0514C99.8423 51.1909 99.7522 51.3561 99.6932 51.5371C99.6342 51.718 99.6076 51.9109 99.6149 52.104V52.1164C99.6081 52.311 99.6353 52.5053 99.695 52.6874C99.7547 52.8696 99.8456 53.0359 99.9623 53.1764C100.079 53.3169 100.219 53.4287 100.374 53.5051C100.529 53.5815 100.696 53.6209 100.864 53.621C101.032 53.6214 101.197 53.5826 101.351 53.507C101.505 53.4314 101.644 53.3204 101.76 53.1809C101.876 53.0414 101.966 52.8761 102.025 52.6952C102.084 52.5143 102.111 52.3214 102.103 52.1283Z" fill="white"/>
<path d="M104.011 49.9917H104.609L106.578 52.9289V49.9917H107.213V54.2395H106.673L104.646 51.2176V54.2395H104.011L104.011 49.9917Z" fill="white"/>
<path d="M108.36 53.6204L108.749 53.0868C109.059 53.4371 109.475 53.6349 109.909 53.6387C110.308 53.6387 110.56 53.4205 110.56 53.1047V53.0926C110.56 52.7952 110.414 52.6193 109.73 52.4434C108.948 52.231 108.507 51.9518 108.507 51.175V51.1626C108.507 50.4349 109.032 49.9309 109.762 49.9309C110.247 49.9197 110.72 50.1091 111.095 50.4651L110.749 51.0284C110.466 50.7615 110.116 50.6083 109.751 50.5916C109.373 50.5916 109.153 50.81 109.153 51.0952V51.1076C109.153 51.4351 109.321 51.581 110.03 51.7751C110.802 52.0055 111.206 52.3093 111.206 53.0188V53.0312C111.206 53.8322 110.665 54.2996 109.893 54.2996C109.326 54.3066 108.778 54.0635 108.361 53.6197" fill="white"/>
</g>
</svg>
