<svg id="Group_2" data-name="Group 2" xmlns="http://www.w3.org/2000/svg" width="213.163" height="54" viewBox="0 0 213.163 54">
  <path id="Path_1" data-name="Path 1" d="M44.023,6.845H52.54l9.44,15.186L71.42,6.845h8.517V42.758H72.087V19.312L61.98,34.652h-.205l-10-15.186V42.758H44.023Z" fill="#2e3191"/>
  <g id="Group_1" data-name="Group 1">
    <path id="Path_2" data-name="Path 2" d="M88.844,6.373h14.68c8.572,0,13.756,5.03,13.756,12.421v.1c0,8.366-6.467,12.626-14.526,12.626H96.748V42.3h-7.9ZM103.01,24.492c3.952,0,6.262-2.361,6.262-5.441v-.1c0-3.542-2.464-5.441-6.416-5.441H96.748V24.492Z" fill="#2e3191"/>
    <path id="Path_3" data-name="Path 3" d="M127.264,14.942h.358L131.4,48.491,127.443,54l-3.952-5.509Z" fill="#2e3191"/>
    <path id="Path_4" data-name="Path 4" d="M137.3,6.373h8.727l9.392,25.3,9.392-25.3h8.52L158.8,42.559h-6.981Z" fill="#2e3191"/>
    <path id="Path_5" data-name="Path 5" d="M174.976,24.441v-.1c0-10.214,8.058-18.58,19.144-18.58s19.043,8.263,19.043,18.478v.1c0,10.214-8.059,18.58-19.145,18.58S174.976,34.655,174.976,24.441Zm29.923,0v-.1c0-6.159-4.516-11.292-10.882-11.292s-10.779,5.03-10.779,11.189v.1c0,6.159,4.517,11.292,10.883,11.292S204.9,30.6,204.9,24.441Z" fill="#2e3191"/>
    <path id="Path_6" data-name="Path 6" d="M127.444,11.667a3.811,3.811,0,0,1-3.7-2.911l-.984-4.043A3.812,3.812,0,0,1,126.46,0h1.967a3.813,3.813,0,0,1,3.7,4.713l-.983,4.043a3.813,3.813,0,0,1-3.7,2.911Z" fill="#f05a28"/>
    <path id="Path_7" data-name="Path 7" d="M36.743,6.373H9.643v7.032h27.1Z" fill="#2e3191"/>
    <path id="Path_8" data-name="Path 8" d="M36.743,35.27H9.643V42.3h27.1Z" fill="#2e3191"/>
    <path id="Path_9" data-name="Path 9" d="M7.032,6.373H0V42.379H7.032Z" fill="#2e3191"/>
    <path id="Path_10" data-name="Path 10" d="M32.715,20.785H9.9v7.032H32.715Z" fill="#f05a28"/>
    <path id="Path_11" data-name="Path 11" d="M1.8,46.781h.651l1.759,4.025H3.47l-.405-.965H1.175l-.411.965H.045Zm1,2.438-.691-1.6-.685,1.6Z" fill="#2e3191"/>
    <path id="Path_12" data-name="Path 12" d="M5.854,47.461H4.581V46.81H7.83v.651H6.556v3.346h-.7Z" fill="#2e3191"/>
    <path id="Path_13" data-name="Path 13" d="M8.7,50.224l.423-.5a1.825,1.825,0,0,0,1.262.519c.434,0,.708-.205.708-.5v-.011c0-.28-.159-.445-.9-.611-.851-.2-1.33-.463-1.33-1.193v-.012a1.222,1.222,0,0,1,1.364-1.159,2.215,2.215,0,0,1,1.45.5l-.377.53a1.829,1.829,0,0,0-1.085-.411c-.411,0-.651.205-.651.474v.012c0,.308.183.445.954.628.839.217,1.279.5,1.279,1.17v.012c0,.754-.588,1.193-1.427,1.193a2.424,2.424,0,0,1-1.667-.64" fill="#2e3191"/>
    <path id="Path_14" data-name="Path 14" d="M16.725,46.781h.651l1.759,4.025h-.742l-.406-.965H16.1l-.411.965h-.719Zm1,2.438-.691-1.6-.685,1.6Z" fill="#2e3191"/>
    <path id="Path_15" data-name="Path 15" d="M20.307,46.81h.651L23.1,49.573V46.81h.691v4H23.2L21,47.963v2.843h-.691Z" fill="#2e3191"/>
    <path id="Path_16" data-name="Path 16" d="M25.306,46.81H26.8A1.992,1.992,0,0,1,28.92,48.8v.012a2,2,0,0,1-2.124,2h-1.49Zm.7.64v2.717H26.8a1.3,1.3,0,0,0,1.387-1.347v-.011A1.311,1.311,0,0,0,26.8,47.45Z" fill="#2e3191"/>
    <path id="Path_17" data-name="Path 17" d="M32.458,46.81h1.781a1.609,1.609,0,0,1,1.153.4,1.217,1.217,0,0,1,.331.862v.012a1.2,1.2,0,0,1-.948,1.21l1.079,1.513h-.834l-.982-1.393H33.16v1.393h-.7Zm1.73,1.981c.5,0,.822-.257.822-.668v-.012c0-.434-.3-.662-.828-.662H33.16v1.342Z" fill="#2e3191"/>
    <path id="Path_18" data-name="Path 18" d="M37.074,46.81h2.963v.628H37.776v1.039h2v.634h-2v1.068h2.29v.628H37.074Z" fill="#2e3191"/>
    <path id="Path_19" data-name="Path 19" d="M41.209,48.819v-.011a2.021,2.021,0,0,1,2.055-2.067,2.087,2.087,0,0,1,1.57.622l-.451.52a1.6,1.6,0,0,0-1.125-.491,1.339,1.339,0,0,0-1.313,1.4v.012a1.346,1.346,0,0,0,1.319,1.416,1.575,1.575,0,0,0,1.148-.514l.451.456a2.035,2.035,0,0,1-1.621.708,2.01,2.01,0,0,1-2.033-2.055" fill="#2e3191"/>
    <path id="Path_20" data-name="Path 20" d="M46.094,46.81h1.781a1.609,1.609,0,0,1,1.153.4,1.217,1.217,0,0,1,.331.862v.012a1.2,1.2,0,0,1-.948,1.21l1.079,1.513h-.834l-.982-1.393H46.8v1.393h-.7Zm1.73,1.981c.5,0,.822-.257.822-.668v-.012c0-.434-.3-.662-.828-.662H46.8v1.342Z" fill="#2e3191"/>
    <path id="Path_21" data-name="Path 21" d="M50.647,49.11v-2.3h.7v2.272c0,.748.377,1.136,1.01,1.136s1-.371,1-1.108v-2.3h.7v2.267a1.6,1.6,0,0,1-1.719,1.793,1.578,1.578,0,0,1-1.7-1.759" fill="#2e3191"/>
    <path id="Path_22" data-name="Path 22" d="M56.262,46.81h-.7v4h.7Z" fill="#2e3191"/>
    <path id="Path_23" data-name="Path 23" d="M58.792,47.461H57.519V46.81h3.249v.651H59.494v3.346h-.7Z" fill="#2e3191"/>
    <path id="Path_24" data-name="Path 24" d="M61.986,46.81h.748L63.95,48.7l1.216-1.89h.748v4h-.7V47.94L63.95,49.825h-.023l-1.25-1.873v2.855h-.691Z" fill="#2e3191"/>
    <path id="Path_25" data-name="Path 25" d="M67.431,46.81h2.963v.628H68.133v1.039h2v.634h-2v1.068h2.29v.628H67.431Z" fill="#2e3191"/>
    <path id="Path_26" data-name="Path 26" d="M71.743,46.81h.651l2.141,2.764V46.81h.691v4h-.587l-2.2-2.843v2.843h-.691Z" fill="#2e3191"/>
    <path id="Path_27" data-name="Path 27" d="M77.718,47.461H76.445V46.81h3.249v.651H78.42v3.346h-.7Z" fill="#2e3191"/>
    <path id="Path_28" data-name="Path 28" d="M82.843,50.224l.423-.5a1.825,1.825,0,0,0,1.262.519c.434,0,.708-.205.708-.5v-.011c0-.28-.159-.445-.9-.611-.851-.2-1.33-.463-1.33-1.193v-.012a1.222,1.222,0,0,1,1.364-1.159,2.216,2.216,0,0,1,1.45.5l-.377.53a1.83,1.83,0,0,0-1.085-.411c-.411,0-.651.205-.651.474v.012c0,.308.183.445.954.628.839.217,1.279.5,1.279,1.17v.012c0,.754-.588,1.193-1.427,1.193a2.424,2.424,0,0,1-1.667-.64" fill="#2e3191"/>
    <path id="Path_29" data-name="Path 29" d="M87.076,48.819v-.011a2.051,2.051,0,0,1,2.1-2.067A2.029,2.029,0,0,1,91.256,48.8v.012a2.051,2.051,0,0,1-2.1,2.067,2.029,2.029,0,0,1-2.085-2.055m3.443,0v-.011a1.36,1.36,0,0,0-1.359-1.416,1.345,1.345,0,0,0-1.347,1.4v.012a1.36,1.36,0,0,0,1.359,1.416,1.345,1.345,0,0,0,1.347-1.4Z" fill="#2e3191"/>
    <path id="Path_30" data-name="Path 30" d="M92.594,46.81h.7v3.357h2.1v.64h-2.8Z" fill="#2e3191"/>
    <path id="Path_31" data-name="Path 31" d="M96.438,49.11v-2.3h.7v2.272c0,.748.377,1.136,1.01,1.136s1-.371,1-1.108v-2.3h.7v2.267a1.6,1.6,0,0,1-1.718,1.793,1.578,1.578,0,0,1-1.7-1.759" fill="#2e3191"/>
    <path id="Path_32" data-name="Path 32" d="M102.288,47.461h-1.274V46.81h3.249v.651H102.99v3.346h-.7Z" fill="#2e3191"/>
    <path id="Path_33" data-name="Path 33" d="M106.224,46.81h-.7v4h.7Z" fill="#2e3191"/>
    <path id="Path_34" data-name="Path 34" d="M107.6,48.819v-.011a2.051,2.051,0,0,1,2.1-2.067,2.029,2.029,0,0,1,2.085,2.055v.012a2.052,2.052,0,0,1-2.1,2.067A2.03,2.03,0,0,1,107.6,48.82m3.443,0v-.011a1.355,1.355,0,1,0-2.706-.012v.012a1.359,1.359,0,0,0,.378,1,1.356,1.356,0,0,0,.981.418,1.345,1.345,0,0,0,1.347-1.4Z" fill="#2e3191"/>
    <path id="Path_35" data-name="Path 35" d="M113.119,46.81h.651l2.141,2.764V46.81h.691v4h-.588l-2.2-2.843v2.843h-.691Z" fill="#2e3191"/>
    <path id="Path_36" data-name="Path 36" d="M117.849,50.224l.423-.5a1.823,1.823,0,0,0,1.261.519c.434,0,.708-.205.708-.5v-.011c0-.28-.159-.445-.9-.611-.85-.2-1.33-.463-1.33-1.193v-.012a1.222,1.222,0,0,1,1.364-1.159,2.218,2.218,0,0,1,1.451.5l-.377.53a1.83,1.83,0,0,0-1.085-.411c-.411,0-.651.205-.651.474v.012c0,.308.183.445.954.628.839.217,1.279.5,1.279,1.17v.012c0,.754-.588,1.193-1.428,1.193a2.426,2.426,0,0,1-1.667-.64" fill="#2e3191"/>
  </g>
</svg>
