<svg width="18" height="19" viewBox="0 0 18 19" fill="none" xmlns="http://www.w3.org/2000/svg">
<path d="M4.44 13.22C3.41 13.22 2.38 13.22 1.34 13.22C0.73 13.22 0.45 12.94 0.45 12.33C0.45 10.6 0.45 8.87 0.45 7.14C0.45 7.02 0.42 6.93 0.33 6.84C0.11 6.62 0 6.35 0 6.04C0 5.04 0 4.04 0 3.03C0 2.7 0.21 2.5 0.54 2.5C1.51 2.5 2.48 2.5 3.45 2.5C3.6 2.5 3.65 2.46 3.64 2.31C3.63 1.93 3.64 1.55 3.64 1.16C3.65 0.45 4.1 0 4.82 0C6.12 0 7.42 0 8.72 0C9.43 0 9.88 0.45 9.88 1.16C9.88 1.54 9.88 1.93 9.88 2.31C9.88 2.47 9.91 2.52 10.08 2.51C11.03 2.51 11.97 2.51 12.92 2.51C13.35 2.51 13.53 2.69 13.53 3.11C13.53 4.06 13.53 5 13.53 5.95C13.53 6.32 13.42 6.63 13.16 6.89C13.1 6.95 13.08 7 13.08 7.08C13.08 7.31 13.08 7.54 13.08 7.77C13.08 7.9 13.13 7.92 13.24 7.93C13.37 7.93 13.49 7.96 13.62 7.97C13.78 7.98 13.86 8.07 13.88 8.22C13.91 8.41 13.88 8.63 13.98 8.76C14.07 8.88 14.31 8.89 14.47 8.96C14.63 9.02 14.78 9.1 14.93 9.18C15.02 9.23 15.08 9.24 15.16 9.17C15.27 9.07 15.39 8.99 15.51 8.9C15.63 8.8 15.75 8.8 15.88 8.9C16.29 9.2 16.64 9.56 16.94 9.97C17.03 10.09 17.02 10.2 16.94 10.32C16.83 10.48 16.63 10.61 16.62 10.79C16.62 10.96 16.77 11.13 16.84 11.3C16.89 11.42 16.95 11.54 16.97 11.66C17 11.87 17.12 11.9 17.29 11.92C17.85 11.97 17.84 11.98 17.9 12.54C17.94 12.94 17.92 13.33 17.86 13.72C17.84 13.87 17.76 13.95 17.61 13.97C17.47 13.99 17.33 14.02 17.2 14.03C17.07 14.03 17.02 14.09 16.99 14.2C16.91 14.49 16.8 14.76 16.65 15.02C16.6 15.11 16.6 15.18 16.67 15.26C16.77 15.37 16.85 15.49 16.94 15.61C17.03 15.73 17.03 15.84 16.94 15.96C16.64 16.37 16.28 16.72 15.88 17.03C15.75 17.12 15.62 17.13 15.52 17.02C15.23 16.68 14.92 16.69 14.56 16.92C14.45 17 14.3 17.04 14.17 17.06C13.99 17.09 13.94 17.19 13.93 17.36C13.87 17.97 13.89 17.93 13.28 18C12.91 18.04 12.54 18.01 12.17 17.97C11.99 17.95 11.87 17.85 11.88 17.66C11.89 17.27 11.74 17.04 11.33 16.97C11.18 16.95 11.03 16.86 10.9 16.78C10.76 16.69 10.65 16.68 10.54 16.81C10.54 16.81 10.52 16.82 10.51 16.83C10.2033 17.0633 9.90333 17.0567 9.61 16.81C9.33 16.57 9.08 16.3 8.85 16C8.74 15.86 8.73 15.73 8.85 15.59C8.96 15.45 9.13 15.31 9.15 15.15C9.17 15 9.01 14.84 8.94 14.68C8.88 14.55 8.82 14.41 8.79 14.27C8.76 14.11 8.69 14.03 8.52 14.03C8.41 14.03 8.3 14 8.2 13.99C8.01 13.98 7.92 13.87 7.9 13.69C7.9 13.68 7.9 13.67 7.9 13.65C7.88 13.52 7.93 13.34 7.84 13.27C7.73 13.18 7.56 13.24 7.42 13.24C6.44 13.24 5.45 13.24 4.47 13.24L4.44 13.22ZM6.75 3.02C4.74 3.02 2.72 3.02 0.71 3.02C0.55 3.02 0.51 3.06 0.51 3.22C0.51 4.13 0.51 5.04 0.51 5.95C0.51 6.25 0.63 6.47 0.87 6.64C1.09 6.79 1.34 6.89 1.6 6.96C2.61 7.25 3.65 7.32 4.69 7.44C4.85 7.46 4.89 7.43 4.89 7.26C4.89 6.84 5.16 6.53 5.56 6.52C6.35 6.51 7.15 6.52 7.94 6.52C8.2 6.52 8.39 6.66 8.52 6.87C8.62 7.03 8.62 7.22 8.61 7.4C8.61 7.54 8.64 7.59 8.79 7.58C9.57 7.53 10.35 7.46 11.12 7.28C11.65 7.16 12.17 7.01 12.62 6.69C12.89 6.5 13.03 6.25 13.03 5.91C13.02 5.01 13.03 4.11 13.03 3.22C13.03 3.06 12.98 3.02 12.83 3.02C10.81 3.02 8.79 3.02 6.77 3.02H6.75ZM12.57 7.33C12.38 7.41 12.22 7.48 12.05 7.54C11.05 7.89 10.01 8 8.96 8.07C8.63 8.09 8.63 8.09 8.62 8.42C8.61 8.85 8.33 9.16 7.91 9.16C7.14 9.16 6.37 9.16 5.6 9.16C5.2 9.16 4.92 8.86 4.9 8.47C4.9 8.35 4.89 8.23 4.9 8.11C4.91 7.99 4.85 7.95 4.75 7.94C4.26 7.89 3.77 7.85 3.28 7.78C2.56 7.69 1.84 7.59 1.15 7.33C0.99 7.27 0.96 7.29 0.96 7.46C0.96 9.07 0.96 10.69 0.96 12.3C0.96 12.64 1.01 12.7 1.37 12.7C3.45 12.7 5.53 12.7 7.61 12.7C7.8 12.7 7.88 12.65 7.86 12.46C7.86 12.44 7.86 12.41 7.86 12.39C7.89 12.06 7.91 11.94 8.3 11.93C8.36 11.93 8.42 11.91 8.48 11.91C8.65 11.91 8.75 11.85 8.78 11.67C8.81 11.53 8.85 11.38 8.93 11.26C9.18 10.91 9.15 10.61 8.83 10.32C8.72 10.22 8.72 10.08 8.82 9.96C9.12 9.55 9.48 9.2 9.88 8.9C10 8.81 10.11 8.81 10.23 8.9C10.34 8.98 10.46 9.06 10.56 9.16C10.65 9.24 10.72 9.25 10.83 9.18C11.06 9.04 11.31 8.93 11.56 8.87C11.74 8.83 11.8 8.74 11.82 8.57C11.88 8.01 11.82 7.99 12.45 7.94C12.52 7.94 12.56 7.92 12.56 7.83C12.56 7.67 12.56 7.51 12.56 7.33H12.57ZM15.06 16.1C15.13 16.1 15.19 16.13 15.24 16.17C15.35 16.25 15.46 16.32 15.56 16.41C15.66 16.5 15.73 16.49 15.82 16.4C15.96 16.26 16.11 16.12 16.25 15.98C16.44 15.78 16.43 15.78 16.26 15.56C16.2 15.48 16.14 15.41 16.08 15.33C16 15.23 15.99 15.12 16.06 15.01C16.3 14.63 16.47 14.22 16.57 13.77C16.6 13.64 16.68 13.57 16.81 13.56C16.96 13.54 17.11 13.51 17.26 13.5C17.34 13.5 17.37 13.46 17.38 13.38C17.41 13.11 17.41 12.84 17.38 12.56C17.38 12.47 17.34 12.44 17.25 12.43C17.1 12.42 16.95 12.39 16.8 12.37C16.68 12.35 16.6 12.28 16.57 12.16C16.47 11.72 16.3 11.31 16.06 10.92C15.99 10.81 16 10.7 16.08 10.6C16.17 10.48 16.26 10.36 16.36 10.24C16.41 10.18 16.42 10.14 16.36 10.07C16.18 9.86 15.99 9.67 15.78 9.49C15.71 9.43 15.66 9.42 15.59 9.49C15.48 9.58 15.36 9.67 15.24 9.76C15.13 9.84 15.02 9.85 14.9 9.78C14.52 9.54 14.12 9.37 13.68 9.27C13.54 9.24 13.47 9.16 13.46 9.02C13.44 8.88 13.41 8.73 13.4 8.59C13.4 8.5 13.36 8.47 13.27 8.46C13 8.44 12.74 8.44 12.47 8.46C12.37 8.46 12.34 8.51 12.33 8.6C12.32 8.74 12.29 8.89 12.27 9.03C12.25 9.16 12.18 9.24 12.05 9.27C11.61 9.37 11.21 9.54 10.83 9.77C10.71 9.85 10.59 9.83 10.48 9.75C10.38 9.67 10.26 9.59 10.16 9.51C10.08 9.44 10.03 9.44 9.94 9.51C9.77 9.66 9.62 9.82 9.46 9.98C9.32 10.11 9.31 10.22 9.46 10.35C9.53 10.42 9.58 10.5 9.64 10.58C9.75 10.71 9.75 10.84 9.65 10.98C9.43 11.33 9.27 11.71 9.18 12.12C9.14 12.3 9.04 12.37 8.87 12.4C8.7 12.44 8.47 12.35 8.37 12.52C8.29 12.67 8.33 12.88 8.33 13.06C8.33 13.1 8.33 13.13 8.33 13.17C8.33667 13.39 8.45333 13.5133 8.68 13.54C8.76 13.54 8.84 13.56 8.91 13.57C9.05 13.59 9.13 13.67 9.16 13.8C9.26 14.23 9.42 14.63 9.66 15C9.74 15.12 9.73 15.24 9.64 15.35C9.55 15.46 9.47 15.58 9.37 15.7C9.32 15.76 9.31 15.81 9.37 15.87C9.55 16.08 9.75 16.28 9.96 16.46C10.02 16.51 10.06 16.51 10.12 16.46C10.24 16.36 10.36 16.28 10.48 16.18C10.59 16.09 10.7 16.08 10.82 16.16C11.2 16.4 11.6 16.57 12.04 16.66C12.17 16.69 12.25 16.77 12.26 16.91C12.28 17.05 12.31 17.2 12.32 17.34C12.32 17.43 12.37 17.46 12.45 17.47C12.71 17.49 12.97 17.49 13.23 17.47C13.35 17.47 13.38 17.41 13.39 17.3C13.39 17.17 13.43 17.05 13.44 16.92C13.46 16.76 13.54 16.67 13.7 16.64C14.11 16.55 14.5 16.39 14.85 16.16C14.91 16.12 14.96 16.09 15.03 16.09L15.06 16.1ZM6.76 2.51C7.57 2.51 8.39 2.51 9.2 2.51C9.32 2.51 9.37 2.48 9.37 2.35C9.37 1.95 9.37 1.55 9.37 1.15C9.37 0.74 9.14 0.51 8.73 0.51C7.43 0.51 6.12 0.51 4.82 0.51C4.41 0.51 4.18 0.74 4.17 1.15C4.17 1.54 4.17 1.94 4.17 2.33C4.17 2.48 4.22 2.51 4.36 2.51C5.17 2.51 5.97 2.51 6.78 2.51H6.76ZM6.76 7.02C6.4 7.02 6.03 7.02 5.67 7.02C5.45 7.02 5.38 7.08 5.38 7.3C5.38 7.66 5.38 8.03 5.38 8.39C5.38 8.59 5.45 8.66 5.65 8.66C6.37 8.66 7.09 8.66 7.82 8.66C8.02 8.66 8.08 8.59 8.09 8.4C8.09 8.03 8.09 7.66 8.09 7.29C8.09 7.07 8.03 7.02 7.82 7.02C7.47 7.02 7.12 7.02 6.76 7.02Z" fill="#3E54AC"/>
<path d="M12.8701 15.27C11.5901 15.27 10.5601 14.23 10.5601 12.95C10.5601 11.67 11.6001 10.64 12.8801 10.64C14.1601 10.64 15.1901 11.68 15.1901 12.96C15.1901 14.24 14.1501 15.27 12.8701 15.27ZM12.8701 14.76C13.8701 14.76 14.6801 13.95 14.6801 12.96C14.6801 11.97 13.8701 11.16 12.8901 11.16C11.8901 11.16 11.0801 11.96 11.0701 12.96C11.0701 13.96 11.8701 14.77 12.8701 14.77V14.76Z" fill="#3E54AC"/>
</svg>
