<svg width="38" height="38" viewBox="0 0 38 38" fill="none" xmlns="http://www.w3.org/2000/svg">
<path d="M8.63674 28.5298V24.0243C8.63674 22.5276 9.80941 21.1852 11.4758 21.1852C12.9725 21.1852 14.3149 22.3579 14.3149 24.0243V28.3601C14.3149 31.3689 11.8153 33.8685 8.80647 33.8685C5.79765 33.8685 3.29801 31.3535 3.29801 28.3601V18.8553C3.12828 10.1837 9.97914 3.16312 18.6507 3.16312C27.3223 3.16312 34.1577 10.1837 34.1577 18.6856V28.1904C34.1577 31.1992 31.6581 33.6988 28.6493 33.6988C25.6404 33.6988 23.1408 31.1992 23.1408 28.1904V23.8546C23.1408 22.3579 24.3135 21.0155 25.9799 21.0155C27.4766 21.0155 28.819 22.1881 28.819 23.8546V28.5298" stroke="black" stroke-width="1.5" stroke-linecap="round" stroke-linejoin="round"/>
<path d="M24.1443 14.072H22.8944C22.7265 14.0739 22.5621 14.1206 22.4183 14.2075C22.2745 14.2943 22.1565 14.418 22.0767 14.5658L20.9194 16.8803C20.7497 17.2197 20.2714 17.2197 20.1016 16.8803L17.2625 11.2175C17.0928 10.8935 16.6299 10.8781 16.4602 11.2021L15.1641 13.5937C15.0098 13.8869 14.7012 14.072 14.3617 14.072H13.2354" stroke="black" stroke-width="1.5" stroke-linecap="round" stroke-linejoin="round"/>
</svg>
