<svg width="22" height="22" viewBox="0 0 22 22" fill="none" xmlns="http://www.w3.org/2000/svg">
<path d="M11 21C16.523 21 21 16.523 21 11C21 5.477 16.523 1 11 1C5.477 1 1 5.477 1 11C1 16.523 5.477 21 11 21Z" stroke="black" stroke-width="1.5" stroke-linecap="round" stroke-linejoin="round"/>
<path d="M7.00007 2H8.00007C6.05011 7.84157 6.05011 14.1584 8.00007 20H7.00007M14.0001 2C15.95 7.84157 15.95 14.1584 14.0001 20" stroke="black" stroke-width="1.5" stroke-linecap="round" stroke-linejoin="round"/>
<path d="M2 15.0001V14.0001C7.84157 15.95 14.1584 15.95 20 14.0001V15.0001M2 8.00007C7.84157 6.05011 14.1584 6.05011 20 8.00007" stroke="black" stroke-width="1.5" stroke-linecap="round" stroke-linejoin="round"/>
</svg>
