<svg width="16" height="17" viewBox="0 0 16 17" fill="none" xmlns="http://www.w3.org/2000/svg">
<path d="M5.12844 3.87156V3.29725C5.12844 2.02658 5.12844 1 7.42569 1H8.57431C10.8716 1 10.8716 2.02658 10.8716 3.29725V3.87156M5.12844 15.3578H10.8716C13.7575 15.3578 14.2744 14.202 14.4251 12.7949L14.9635 7.05181C15.1574 5.30016 14.6548 3.87156 11.5894 3.87156H4.41055C1.34516 3.87156 0.842641 5.30016 1.03647 7.05181L1.57489 12.7949C1.72565 14.202 2.24253 15.3578 5.12844 15.3578Z" stroke="#2E3191" stroke-width="1.5" stroke-miterlimit="10" stroke-linecap="round" stroke-linejoin="round"/>
<path d="M9.4357 9.62896V8.89672C9.4357 8.17883 9.4357 8.17883 8.71781 8.17883H7.28203C6.56414 8.17883 6.56414 8.17883 6.56414 8.89672V9.63614M9.4357 9.62896C9.4357 10.4115 9.42852 11.0504 7.99992 11.0504C6.5785 11.0504 6.56414 10.4186 6.56414 9.63614M9.4357 9.62896C11.4201 9.38192 13.3095 8.63603 14.9276 7.46094M6.56414 9.63614C4.7048 9.42795 2.88136 8.76032 1.26611 7.65477" stroke="#2E3191" stroke-width="1.5" stroke-miterlimit="10" stroke-linecap="round" stroke-linejoin="round"/>
</svg>
