<svg width="17" height="17" viewBox="0 0 17 17" fill="none" xmlns="http://www.w3.org/2000/svg">
<path d="M15.5837 15.5833L14.167 14.1667M8.14616 14.875C9.02985 14.875 9.90488 14.7009 10.7213 14.3628C11.5377 14.0246 12.2795 13.5289 12.9044 12.9041C13.5293 12.2792 14.0249 11.5374 14.3631 10.721C14.7013 9.90455 14.8753 9.02952 14.8753 8.14583C14.8753 7.26214 14.7013 6.38711 14.3631 5.57069C14.0249 4.75427 13.5293 4.01245 12.9044 3.38759C12.2795 2.76273 11.5377 2.26706 10.7213 1.92889C9.90488 1.59072 9.02985 1.41666 8.14616 1.41666C6.36147 1.41666 4.64988 2.12563 3.38792 3.38759C2.12596 4.64956 1.41699 6.36115 1.41699 8.14583C1.41699 9.93052 2.12596 11.6421 3.38792 12.9041C4.64988 14.166 6.36147 14.875 8.14616 14.875Z" stroke="#707070" stroke-width="1.5" stroke-linecap="round" stroke-linejoin="round"/>
</svg>
