<svg width="57" height="57" viewBox="0 0 57 57" fill="none" xmlns="http://www.w3.org/2000/svg">
<mask id="mask0_229_145" style="mask-type:luminance" maskUnits="userSpaceOnUse" x="0" y="0" width="57" height="57">
<path d="M56.687 0H0V56.687H56.687V0Z" fill="white"/>
</mask>
<g mask="url(#mask0_229_145)">
<path d="M28.343 0C22.7373 0.00019778 17.2576 1.66265 12.5967 4.77714C7.93588 7.89163 4.30325 12.3183 2.15818 17.4973C0.0131235 22.6763 -0.54802 28.3751 0.545714 33.8731C1.63945 39.371 4.33894 44.4211 8.30282 48.3849C12.2667 52.3486 17.3169 55.0479 22.8149 56.1415C28.3129 57.235 34.0117 56.6737 39.1906 54.5284C44.3696 52.3832 48.7961 48.7504 51.9104 44.0894C55.0247 39.4285 56.687 33.9487 56.687 28.343C56.6867 20.8259 53.7004 13.6167 48.3849 8.30141C43.0694 2.9861 35.8601 -4.67842e-09 28.343 0Z" fill="#4BAE4F"/>
<path d="M28.2988 28.106C28.3566 28.1714 28.3885 28.2557 28.3885 28.343C28.3885 28.4302 28.3566 28.5145 28.2988 28.58V28.106Z" fill="#4DAF51"/>
<path d="M28.2988 28.106C28.3566 28.1714 28.3885 28.2557 28.3885 28.343C28.3885 28.4302 28.3566 28.5145 28.2988 28.58V28.106Z" fill="#4DAF51"/>
<path d="M25.3072 38.4882C25.1222 38.6906 24.8956 38.8507 24.6429 38.9572C24.3902 39.0638 24.1174 39.1144 23.8433 39.1056C23.5692 39.0968 23.3003 39.0287 23.055 38.9061C22.8096 38.7834 22.5938 38.6091 22.4222 38.3952C19.5669 35.5412 16.7126 32.6862 13.8592 29.8302C13.6103 29.6395 13.4127 29.3899 13.2844 29.1038C13.1561 28.8177 13.1011 28.5041 13.1243 28.1914C13.1475 27.8787 13.2483 27.5767 13.4174 27.3127C13.5866 27.0487 13.8188 26.831 14.0932 26.6792C14.4781 26.5302 14.895 26.4836 15.3033 26.5441C15.7115 26.6046 16.0971 26.77 16.4222 27.0242C18.7732 29.3882 21.1322 31.7432 23.4652 34.1242C23.8182 34.4852 23.9842 34.4572 24.3252 34.1142C29.5479 28.8682 34.7792 23.6308 40.0192 18.4022C40.1432 18.2782 40.2552 18.1412 40.3722 18.0102C40.7664 17.6963 41.2635 17.5408 41.7663 17.5743C42.269 17.6078 42.7412 17.8278 43.0902 18.1912C43.3807 18.522 43.55 18.9419 43.5702 19.3817C43.5903 19.8215 43.4602 20.2551 43.2012 20.6112C43.0832 20.7112 42.9562 20.8022 42.8472 20.9112C37.0886 26.6658 31.3312 32.4218 25.5752 38.1792C25.4752 38.2792 25.3962 38.3852 25.3072 38.4882Z" fill="white"/>
<path d="M28.3871 28.3028L28.2951 28.3898C28.2821 28.3138 28.3101 28.2828 28.3871 28.3028Z" fill="white"/>
<path d="M28.4053 28.2939L28.2812 28.3939C28.2953 28.3269 28.3273 28.2819 28.4053 28.2939Z" fill="white"/>
</g>
</svg>
