<svg width="38" height="38" viewBox="0 0 38 38" fill="none" xmlns="http://www.w3.org/2000/svg">
<g clip-path="url(#clip0_89_295)">
<path d="M23.2737 3.08597V18.5158C23.2737 20.2131 21.885 21.6018 20.1877 21.6018H3.21484V11.7575C4.34122 13.0999 6.06937 13.9332 7.98267 13.8869C9.54109 13.856 10.9452 13.2542 11.9944 12.2513C12.4728 11.8501 12.8739 11.3409 13.1825 10.7855C13.738 9.84425 14.0466 8.7333 14.0157 7.57606C13.9695 5.77076 13.1671 4.18149 11.9173 3.08597H23.2737Z" stroke="black" stroke-width="1.5" stroke-linecap="round" stroke-linejoin="round"/>
<path d="M34.0746 21.6018V26.2308C34.0746 28.7921 32.007 30.8597 29.4456 30.8597H27.9026C27.9026 29.1624 26.5139 27.7738 24.8166 27.7738C23.1194 27.7738 21.7307 29.1624 21.7307 30.8597H15.5587C15.5587 29.1624 14.17 27.7738 12.4728 27.7738C10.7755 27.7738 9.38679 29.1624 9.38679 30.8597H7.8438C5.28244 30.8597 3.21484 28.7921 3.21484 26.2308V21.6018H20.1877C21.885 21.6018 23.2737 20.2131 23.2737 18.5158V7.71494H26.1128C27.2237 7.71494 28.2421 8.3167 28.7976 9.27335L31.4361 13.8869H29.4456C28.597 13.8869 27.9026 14.5812 27.9026 15.4299V20.0588C27.9026 20.9075 28.597 21.6018 29.4456 21.6018H34.0746Z" stroke="black" stroke-width="1.5" stroke-linecap="round" stroke-linejoin="round"/>
<path d="M12.4727 33.9457C13.2911 33.9457 14.0761 33.6206 14.6548 33.0418C15.2335 32.4631 15.5587 31.6782 15.5587 30.8597C15.5587 30.0413 15.2335 29.2563 14.6548 28.6776C14.0761 28.0989 13.2911 27.7737 12.4727 27.7737C11.6542 27.7737 10.8693 28.0989 10.2906 28.6776C9.71185 29.2563 9.38672 30.0413 9.38672 30.8597C9.38672 31.6782 9.71185 32.4631 10.2906 33.0418C10.8693 33.6206 11.6542 33.9457 12.4727 33.9457ZM24.8166 33.9457C25.635 33.9457 26.42 33.6206 26.9987 33.0418C27.5774 32.4631 27.9025 31.6782 27.9025 30.8597C27.9025 30.0413 27.5774 29.2563 26.9987 28.6776C26.42 28.0989 25.635 27.7737 24.8166 27.7737C23.9981 27.7737 23.2132 28.0989 22.6345 28.6776C22.0557 29.2563 21.7306 30.0413 21.7306 30.8597C21.7306 31.6782 22.0557 32.4631 22.6345 33.0418C23.2132 33.6206 23.9981 33.9457 24.8166 33.9457ZM34.0745 18.5158V21.6018H29.4455C28.5969 21.6018 27.9025 20.9075 27.9025 20.0588V15.4299C27.9025 14.5812 28.5969 13.8869 29.4455 13.8869H31.436L34.0745 18.5158Z" stroke="black" stroke-width="1.5" stroke-linecap="round" stroke-linejoin="round"/>
<path d="M9.49483 9.31963L6.23913 6.06393M9.44854 6.11022L6.19284 9.36592M14.0158 7.71493C14.0158 8.87217 13.6917 9.96769 13.1208 10.8935C12.7968 11.449 12.3802 11.9427 11.9019 12.3439C10.8218 13.316 9.40225 13.8869 7.84383 13.8869C6.78004 13.8891 5.73401 13.6142 4.80872 13.0893C3.88343 12.5645 3.11077 11.8077 2.56682 10.8935C1.97947 9.93748 1.66961 8.83694 1.67189 7.71493C1.67189 5.77077 2.56682 4.02719 3.98637 2.90081C4.89364 2.17364 5.9879 1.71761 7.14307 1.58527C8.29823 1.45293 9.46728 1.64967 10.5155 2.15281C11.5637 2.65596 12.4484 3.44503 13.0677 4.42911C13.687 5.41318 14.0157 6.55221 14.0158 7.71493Z" stroke="black" stroke-width="1.5" stroke-miterlimit="10" stroke-linecap="round" stroke-linejoin="round"/>
</g>
<defs>
<clipPath id="clip0_89_295">
<rect width="37.0317" height="37.0317" fill="white" transform="translate(0.128906)"/>
</clipPath>
</defs>
</svg>
