<svg width="14" height="14" viewBox="0 0 14 14" fill="none" xmlns="http://www.w3.org/2000/svg">
<path d="M1.9375 1.96875C3.25 0.65625 4.82292 0 6.65625 0C8.51042 0 10.0833 0.65625 11.375 1.96875C12.6875 3.26042 13.3438 4.82292 13.3438 6.65625C13.3438 8.48958 12.6875 10.0625 11.375 11.375C10.0833 12.6667 8.51042 13.3125 6.65625 13.3125C4.82292 13.3125 3.25 12.6667 1.9375 11.375C0.645833 10.0625 0 8.48958 0 6.65625C0 4.82292 0.645833 3.26042 1.9375 1.96875ZM10 9.0625L7.59375 6.65625L10 4.25L9.0625 3.3125L6.65625 5.71875L4.28125 3.3125L3.34375 4.25L5.71875 6.65625L3.34375 9.0625L4.28125 10L6.65625 7.59375L9.0625 10L10 9.0625Z" fill="#4C4C4C"/>
</svg>
